IntelOneMono-LightItalic-quadratic.ufo
<glyph name="quotedbl" format="2">
  <advance width="614"/>
  <unicode hex="0022"/>
  <outline>
    <contour>
      <point x="449" y="426" type="line"/>
      <point x="507" y="426" type="line"/>
      <point x="610" y="710" type="line"/>
      <point x="510" y="710" type="line"/>
    </contour>
    <contour>
      <point x="203" y="426" type="line"/>
      <point x="261" y="426" type="line"/>
      <point x="364" y="710" type="line"/>
      <point x="264" y="710" type="line"/>
    </contour>
  </outline>
</glyph>
<glyph name="numbersign" format="2">
  <advance width="614"/>
  <unicode hex="0023"/>
  <outline>
    <contour>
      <point x="155" y="186" type="line"/>
      <point x="45" y="186" type="line"/>
      <point x="45" y="236" type="line"/>
      <point x="176" y="236" type="line"/>
      <point x="252" y="424" type="line"/>
      <point x="126" y="424" type="line"/>
      <point x="126" y="475" type="line"/>
      <point x="273" y="475" type="line"/>
      <point x="350" y="666" type="line"/>
      <point x="401" y="666" type="line"/>
      <point x="322" y="471" type="line"/>
      <point x="464" y="471" type="line"/>
      <point x="544" y="666" type="line"/>
      <point x="595" y="666" type="line"/>
      <point x="518" y="475" type="line"/>
      <point x="624" y="475" type="line"/>
      <point x="624" y="424" type="line"/>
      <point x="497" y="424" type="line"/>
      <point x="421" y="236" type="line"/>
      <point x="544" y="236" type="line"/>
      <point x="544" y="186" type="line"/>
      <point x="400" y="186" type="line"/>
      <point x="320" y="-12" type="line"/>
      <point x="268" y="-12" type="line"/>
      <point x="351" y="190" type="line"/>
      <point x="207" y="190" type="line"/>
      <point x="125" y="-12" type="line"/>
      <point x="75" y="-12" type="line"/>
    </contour>
    <contour>
      <point x="224" y="232" type="line"/>
      <point x="368" y="232" type="line"/>
      <point x="447" y="428" type="line"/>
      <point x="304" y="428" type="line"/>
    </contour>
  </outline>
</glyph>
<glyph name="percent" format="2">
  <advance width="614"/>
  <unicode hex="0025"/>
  <outline>
    <contour>
      <point x="413" y="560" type="qcurve"/>
      <point x="413" y="460"/>
      <point x="305" y="317"/>
      <point x="225" y="317" type="qcurve"/>
      <point x="170" y="317"/>
      <point x="113" y="373"/>
      <point x="113" y="427" type="qcurve"/>
      <point x="113" y="527"/>
      <point x="221" y="670"/>
      <point x="301" y="670" type="qcurve"/>
      <point x="356" y="670"/>
      <point x="413" y="614"/>
    </contour>
    <contour>
      <point x="714" y="654" type="line"/>
      <point x="429" y="376" type="line"/>
      <point x="394" y="376" type="line"/>
      <point x="618" y="660" type="line"/>
      <point x="715" y="660" type="line"/>
    </contour>
    <contour>
      <point x="360" y="560" type="qcurve"/>
      <point x="360" y="592"/>
      <point x="329" y="623"/>
      <point x="297" y="623" type="qcurve"/>
      <point x="243" y="623"/>
      <point x="166" y="500"/>
      <point x="166" y="427" type="qcurve"/>
      <point x="166" y="395"/>
      <point x="197" y="364"/>
      <point x="229" y="364" type="qcurve"/>
      <point x="283" y="364"/>
      <point x="360" y="487"/>
    </contour>
    <contour>
      <point x="556" y="228" type="qcurve"/>
      <point x="556" y="128"/>
      <point x="448" y="-15"/>
      <point x="368" y="-15" type="qcurve"/>
      <point x="313" y="-15"/>
      <point x="256" y="41"/>
      <point x="256" y="95" type="qcurve"/>
      <point x="256" y="195"/>
      <point x="364" y="338"/>
      <point x="444" y="338" type="qcurve"/>
      <point x="499" y="338"/>
      <point x="556" y="282"/>
    </contour>
    <contour>
      <point x="-44" y="1" type="line"/>
      <point x="241" y="279" type="line"/>
      <point x="276" y="279" type="line"/>
      <point x="52" y="-5" type="line"/>
      <point x="-45" y="-5" type="line"/>
    </contour>
    <contour>
      <point x="503" y="228" type="qcurve"/>
      <point x="503" y="260"/>
      <point x="472" y="291"/>
      <point x="440" y="291" type="qcurve"/>
      <point x="386" y="291"/>
      <point x="309" y="168"/>
      <point x="309" y="95" type="qcurve"/>
      <point x="309" y="63"/>
      <point x="340" y="32"/>
      <point x="372" y="32" type="qcurve"/>
      <point x="426" y="32"/>
      <point x="503" y="155"/>
    </contour>
  </outline>
</glyph>
<glyph name="asterisk" format="2">
  <advance width="614"/>
  <unicode hex="002A"/>
  <outline>
    <contour>
      <point x="163" y="163" type="qcurve"/>
      <point x="105" y="229" type="line"/>
      <point x="121" y="243"/>
      <point x="166" y="275"/>
      <point x="217" y="305" type="qcurve"/>
      <point x="264" y="334"/>
      <point x="307" y="363"/>
      <point x="322" y="376" type="qcurve"/>
      <point x="307" y="381"/>
      <point x="265" y="391"/>
      <point x="220" y="398" type="qcurve"/>
      <point x="172" y="406"/>
      <point x="129" y="416"/>
      <point x="114" y="422" type="qcurve"/>
      <point x="169" y="509" type="line"/>
      <point x="184" y="503"/>
      <point x="220" y="481"/>
      <point x="257" y="455" type="qcurve"/>
      <point x="291" y="430"/>
      <point x="325" y="409"/>
      <point x="339" y="403" type="qcurve"/>
      <point x="344" y="421"/>
      <point x="351" y="468"/>
      <point x="355" y="517" type="qcurve"/>
      <point x="360" y="566"/>
      <point x="367" y="612"/>
      <point x="372" y="630" type="qcurve"/>
      <point x="467" y="630" type="line"/>
      <point x="462" y="612"/>
      <point x="443" y="566"/>
      <point x="420" y="516" type="qcurve"/>
      <point x="397" y="467"/>
      <point x="377" y="421"/>
      <point x="372" y="403" type="qcurve"/>
      <point x="390" y="410"/>
      <point x="434" y="430"/>
      <point x="480" y="455" type="qcurve"/>
      <point x="529" y="481"/>
      <point x="576" y="502"/>
      <point x="594" y="508" type="qcurve"/>
      <point x="607" y="417" type="line"/>
      <point x="588" y="411"/>
      <point x="538" y="400"/>
      <point x="484" y="392" type="qcurve"/>
      <point x="436" y="385"/>
      <point x="391" y="376"/>
      <point x="373" y="371" type="qcurve"/>
      <point x="381" y="358"/>
      <point x="406" y="328"/>
      <point x="434" y="298" type="qcurve"/>
      <point x="464" y="265"/>
      <point x="489" y="233"/>
      <point x="497" y="220" type="qcurve"/>
      <point x="411" y="163" type="line"/>
      <point x="403" y="177"/>
      <point x="387" y="218"/>
      <point x="374" y="264" type="qcurve"/>
      <point x="363" y="304"/>
      <point x="350" y="341"/>
      <point x="343" y="354" type="qcurve"/>
      <point x="327" y="340"/>
      <point x="289" y="300"/>
      <point x="251" y="256" type="qcurve"/>
      <point x="214" y="214"/>
      <point x="178" y="176"/>
    </contour>
  </outline>
</glyph>
<glyph name="plus" format="2">
  <advance width="614"/>
  <unicode hex="002B"/>
  <outline>
    <contour>
      <point x="297" y="301" type="line"/>
      <point x="93" y="301" type="line"/>
      <point x="108" y="352" type="line"/>
      <point x="312" y="352" type="line"/>
      <point x="372" y="561" type="line"/>
      <point x="431" y="561" type="line"/>
      <point x="371" y="352" type="line"/>
      <point x="576" y="352" type="line"/>
      <point x="561" y="301" type="line"/>
      <point x="356" y="301" type="line"/>
      <point x="295" y="90" type="line"/>
      <point x="236" y="90" type="line"/>
    </contour>
  </outline>
</glyph>
<glyph name="comma" format="2">
  <advance width="614"/>
  <unicode hex="002C"/>
  <outline>
    <contour>
      <point x="138" y="-144" type="qcurve"/>
      <point x="71" y="-144" type="line"/>
      <point x="71" y="-142" type="line"/>
      <point x="171" y="-57"/>
      <point x="227" y="26"/>
      <point x="246" y="120" type="qcurve"/>
      <point x="346" y="120" type="line"/>
      <point x="321" y="9"/>
      <point x="252" y="-79"/>
    </contour>
  </outline>
</glyph>
<glyph name="hyphen" format="2">
  <advance width="614"/>
  <unicode hex="002D"/>
  <outline>
    <contour>
      <point x="127" y="254" type="line"/>
      <point x="143" y="309" type="line"/>
      <point x="517" y="309" type="line"/>
      <point x="501" y="254" type="line"/>
    </contour>
  </outline>
</glyph>
<glyph name="period" format="2">
  <advance width="614"/>
  <unicode hex="002E"/>
  <outline>
    <contour>
      <point x="335" y="64" type="qcurve"/>
      <point x="335" y="29"/>
      <point x="289" y="-15"/>
      <point x="251" y="-15" type="qcurve"/>
      <point x="220" y="-15"/>
      <point x="185" y="16"/>
      <point x="185" y="42" type="qcurve"/>
      <point x="185" y="78"/>
      <point x="231" y="122"/>
      <point x="270" y="122" type="qcurve"/>
      <point x="299" y="122"/>
      <point x="335" y="90"/>
    </contour>
  </outline>
</glyph>
<glyph name="zero" format="2">
  <advance width="614"/>
  <unicode hex="0030"/>
  <outline>
    <contour>
      <point x="228" y="592" type="qcurve"/>
      <point x="267" y="631"/>
      <point x="360" y="670"/>
      <point x="416" y="670" type="qcurve"/>
      <point x="501" y="670"/>
      <point x="594" y="566"/>
      <point x="594" y="469" type="qcurve"/>
      <point x="594" y="356"/>
      <point x="508" y="135"/>
      <point x="436" y="63" type="qcurve"/>
      <point x="397" y="24"/>
      <point x="304" y="-15"/>
      <point x="248" y="-15" type="qcurve"/>
      <point x="163" y="-15"/>
      <point x="70" y="89"/>
      <point x="70" y="186" type="qcurve"/>
      <point x="70" y="299"/>
      <point x="156" y="520"/>
    </contour>
    <contour>
      <point x="413" y="619" type="qcurve"/>
      <point x="375" y="619"/>
      <point x="305" y="587"/>
      <point x="273" y="555" type="qcurve"/>
      <point x="222" y="504"/>
      <point x="150" y="345"/>
      <point x="138" y="257" type="qcurve"/>
      <point x="531" y="454" type="line"/>
      <point x="531" y="472" type="line"/>
      <point x="531" y="543"/>
      <point x="470" y="619"/>
    </contour>
    <contour>
      <point x="133" y="183" type="line"/>
      <point x="133" y="112"/>
      <point x="194" y="36"/>
      <point x="251" y="36" type="qcurve"/>
      <point x="289" y="36"/>
      <point x="359" y="68"/>
      <point x="391" y="100" type="qcurve"/>
      <point x="442" y="151"/>
      <point x="513" y="310"/>
      <point x="526" y="400" type="qcurve"/>
      <point x="133" y="202" type="line"/>
    </contour>
  </outline>
</glyph>
<glyph name="one" format="2">
  <advance width="614"/>
  <unicode hex="0031"/>
  <outline>
    <contour>
      <point x="460" y="0" type="line"/>
      <point x="57" y="0" type="line"/>
      <point x="72" y="51" type="line"/>
      <point x="224" y="51" type="line"/>
      <point x="419" y="578" type="line"/>
      <point x="226" y="483" type="line"/>
      <point x="245" y="546" type="line"/>
      <point x="486" y="664" type="line"/>
      <point x="509" y="664" type="line"/>
      <point x="285" y="51" type="line"/>
      <point x="475" y="51" type="line"/>
    </contour>
  </outline>
</glyph>
<glyph name="two" format="2">
  <advance width="614"/>
  <unicode hex="0032"/>
  <outline>
    <contour>
      <point x="472" y="0" type="line"/>
      <point x="19" y="0" type="line"/>
      <point x="19" y="37" type="line"/>
      <point x="381" y="326" type="line"/>
      <point x="465" y="393"/>
      <point x="533" y="482"/>
      <point x="533" y="530" type="qcurve"/>
      <point x="533" y="572"/>
      <point x="481" y="619"/>
      <point x="435" y="619" type="qcurve"/>
      <point x="386" y="619"/>
      <point x="282" y="568"/>
      <point x="189" y="500" type="qcurve"/>
      <point x="158" y="545" type="line"/>
      <point x="258" y="617"/>
      <point x="374" y="670"/>
      <point x="438" y="670" type="qcurve"/>
      <point x="510" y="670"/>
      <point x="598" y="594"/>
      <point x="598" y="533" type="qcurve"/>
      <point x="598" y="474"/>
      <point x="518" y="367"/>
      <point x="426" y="295" type="qcurve"/>
      <point x="121" y="53" type="line"/>
      <point x="121" y="51" type="line"/>
      <point x="487" y="51" type="line"/>
    </contour>
  </outline>
</glyph>
<glyph name="three" format="2">
  <advance width="614"/>
  <unicode hex="0033"/>
  <outline>
    <contour>
      <point x="499" y="604" type="line"/>
      <point x="178" y="604" type="line"/>
      <point x="193" y="655" type="line"/>
      <point x="604" y="655" type="line"/>
      <point x="604" y="618" type="line"/>
      <point x="319" y="381" type="line"/>
      <point x="319" y="378" type="line"/>
      <point x="424" y="373"/>
      <point x="525" y="302"/>
      <point x="525" y="231" type="qcurve"/>
      <point x="525" y="127"/>
      <point x="346" y="9"/>
      <point x="172" y="-1" type="qcurve"/>
      <point x="25" y="-10" type="line"/>
      <point x="35" y="42" type="line"/>
      <point x="167" y="51" type="line"/>
      <point x="310" y="61"/>
      <point x="459" y="149"/>
      <point x="459" y="223" type="qcurve"/>
      <point x="459" y="268"/>
      <point x="403" y="317"/>
      <point x="340" y="327" type="qcurve"/>
      <point x="316" y="331"/>
      <point x="258" y="335"/>
      <point x="224" y="336" type="qcurve"/>
      <point x="224" y="364" type="line"/>
      <point x="499" y="602" type="line"/>
    </contour>
  </outline>
</glyph>
<glyph name="four" format="2">
  <advance width="614"/>
  <unicode hex="0034"/>
  <outline>
    <contour>
      <point x="365" y="186" type="line"/>
      <point x="46" y="186" type="line"/>
      <point x="60" y="233" type="line"/>
      <point x="494" y="655" type="line"/>
      <point x="582" y="655" type="line"/>
      <point x="444" y="237" type="line"/>
      <point x="580" y="237" type="line"/>
      <point x="565" y="186" type="line"/>
      <point x="427" y="186" type="line"/>
      <point x="366" y="0" type="line"/>
      <point x="303" y="0" type="line"/>
    </contour>
    <contour>
      <point x="385" y="235" type="line"/>
      <point x="506" y="604" type="line"/>
      <point x="129" y="238" type="line"/>
      <point x="129" y="235" type="line"/>
    </contour>
  </outline>
</glyph>
<glyph name="eight" format="2">
  <advance width="614"/>
  <unicode hex="0038"/>
  <outline>
    <contour>
      <point x="521" y="195" type="qcurve"/>
      <point x="521" y="104"/>
      <point x="370" y="-15"/>
      <point x="259" y="-15" type="qcurve"/>
      <point x="166" y="-15"/>
      <point x="60" y="71"/>
      <point x="60" y="146" type="qcurve"/>
      <point x="60" y="221"/>
      <point x="174" y="330"/>
      <point x="268" y="343" type="qcurve"/>
      <point x="268" y="348" type="line"/>
      <point x="224" y="366"/>
      <point x="177" y="434"/>
      <point x="177" y="477" type="qcurve"/>
      <point x="177" y="558"/>
      <point x="310" y="670"/>
      <point x="407" y="670" type="qcurve"/>
      <point x="492" y="670"/>
      <point x="590" y="589"/>
      <point x="590" y="519" type="qcurve"/>
      <point x="590" y="452"/>
      <point x="496" y="351"/>
      <point x="418" y="336" type="qcurve"/>
      <point x="418" y="331" type="line"/>
      <point x="467" y="313"/>
      <point x="521" y="241"/>
    </contour>
    <contour>
      <point x="405" y="619" type="qcurve"/>
      <point x="334" y="619"/>
      <point x="238" y="531"/>
      <point x="238" y="467" type="qcurve"/>
      <point x="238" y="421"/>
      <point x="302" y="364"/>
      <point x="352" y="364" type="qcurve"/>
      <point x="421" y="364"/>
      <point x="529" y="460"/>
      <point x="529" y="520" type="qcurve"/>
      <point x="529" y="566"/>
      <point x="462" y="619"/>
    </contour>
    <contour>
      <point x="322" y="312" type="qcurve"/>
      <point x="241" y="312"/>
      <point x="124" y="215"/>
      <point x="124" y="146" type="qcurve"/>
      <point x="124" y="94"/>
      <point x="196" y="36"/>
      <point x="261" y="36" type="qcurve"/>
      <point x="344" y="36"/>
      <point x="457" y="131"/>
      <point x="457" y="202" type="qcurve"/>
      <point x="457" y="252"/>
      <point x="383" y="312"/>
    </contour>
  </outline>
</glyph>
<glyph name="nine" format="2">
  <advance width="614"/>
  <unicode hex="0039"/>
  <outline>
    <contour>
      <point x="112" y="1" type="line"/>
      <point x="287" y="124" type="line"/>
      <point x="324" y="150"/>
      <point x="386" y="200"/>
      <point x="411" y="224" type="qcurve"/>
      <point x="277" y="230"/>
      <point x="144" y="320"/>
      <point x="144" y="405" type="qcurve"/>
      <point x="144" y="507"/>
      <point x="314" y="669"/>
      <point x="424" y="669" type="qcurve"/>
      <point x="507" y="669"/>
      <point x="603" y="574"/>
      <point x="603" y="489" type="qcurve"/>
      <point x="603" y="390"/>
      <point x="468" y="194"/>
      <point x="332" y="97" type="qcurve"/>
      <point x="195" y="-1" type="line"/>
      <point x="112" y="-1" type="line"/>
    </contour>
    <contour>
      <point x="423" y="618" type="qcurve"/>
      <point x="338" y="618"/>
      <point x="204" y="485"/>
      <point x="204" y="407" type="qcurve"/>
      <point x="204" y="336"/>
      <point x="316" y="270"/>
      <point x="448" y="263" type="qcurve"/>
      <point x="496" y="318"/>
      <point x="543" y="430"/>
      <point x="543" y="492" type="qcurve"/>
      <point x="543" y="551"/>
      <point x="479" y="618"/>
    </contour>
  </outline>
</glyph>
<glyph name="semicolon" format="2">
  <advance width="614"/>
  <unicode hex="003B"/>
  <outline>
    <contour>
      <point x="440" y="421" type="qcurve"/>
      <point x="440" y="384"/>
      <point x="392" y="335"/>
      <point x="354" y="335" type="qcurve"/>
      <point x="324" y="335"/>
      <point x="290" y="363"/>
      <point x="290" y="388" type="qcurve"/>
      <point x="290" y="422"/>
      <point x="338" y="472"/>
      <point x="375" y="472" type="qcurve"/>
      <point x="407" y="472"/>
      <point x="440" y="446"/>
    </contour>
    <contour>
      <point x="120" y="-144" type="qcurve"/>
      <point x="57" y="-144" type="line"/>
      <point x="57" y="-142" type="line"/>
      <point x="143" y="-51"/>
      <point x="200" y="32"/>
      <point x="232" y="120" type="qcurve"/>
      <point x="332" y="120" type="line"/>
      <point x="295" y="22"/>
      <point x="225" y="-66"/>
    </contour>
  </outline>
</glyph>
<glyph name="question" format="2">
  <advance width="614"/>
  <unicode hex="003F"/>
  <outline>
    <contour>
      <point x="253" y="227" type="qcurve"/>
      <point x="217" y="227" type="line"/>
      <point x="223" y="268"/>
      <point x="232" y="317"/>
      <point x="235" y="328" type="qcurve"/>
      <point x="239" y="344"/>
      <point x="261" y="362"/>
      <point x="292" y="374" type="qcurve"/>
      <point x="425" y="425" type="line"/>
      <point x="497" y="453"/>
      <point x="564" y="523"/>
      <point x="564" y="573" type="qcurve"/>
      <point x="564" y="621"/>
      <point x="505" y="674"/>
      <point x="452" y="674" type="qcurve"/>
      <point x="402" y="674"/>
      <point x="301" y="632"/>
      <point x="203" y="573" type="qcurve"/>
      <point x="176" y="618" type="line"/>
      <point x="275" y="680"/>
      <point x="392" y="725"/>
      <point x="460" y="725" type="qcurve"/>
      <point x="534" y="725"/>
      <point x="628" y="645"/>
      <point x="628" y="582" type="qcurve"/>
      <point x="628" y="507"/>
      <point x="540" y="412"/>
      <point x="436" y="371" type="qcurve"/>
      <point x="321" y="326" type="line"/>
      <point x="296" y="316"/>
      <point x="274" y="282"/>
    </contour>
    <contour>
      <point x="125" y="30" type="qcurve"/>
      <point x="125" y="58"/>
      <point x="165" y="93"/>
      <point x="197" y="93" type="qcurve"/>
      <point x="222" y="93"/>
      <point x="253" y="68"/>
      <point x="253" y="48" type="qcurve"/>
      <point x="253" y="20"/>
      <point x="213" y="-15"/>
      <point x="181" y="-15" type="qcurve"/>
      <point x="155" y="-15"/>
      <point x="125" y="10"/>
    </contour>
  </outline>
</glyph>
<glyph name="at" format="2">
  <advance width="614"/>
  <unicode hex="0040"/>
  <outline>
    <contour>
      <point x="399" y="-17" type="qcurve"/>
      <point x="409" y="-60" type="line"/>
      <point x="357" y="-70"/>
      <point x="286" y="-79"/>
      <point x="252" y="-79" type="qcurve"/>
      <point x="148" y="-79"/>
      <point x="49" y="15"/>
      <point x="49" y="113" type="qcurve"/>
      <point x="49" y="240"/>
      <point x="165" y="563"/>
      <point x="242" y="640" type="qcurve"/>
      <point x="285" y="683"/>
      <point x="390" y="725"/>
      <point x="456" y="725" type="qcurve"/>
      <point x="556" y="725"/>
      <point x="637" y="655"/>
      <point x="637" y="574" type="qcurve"/>
      <point x="637" y="484"/>
      <point x="562" y="225"/>
      <point x="515" y="178" type="qcurve"/>
      <point x="490" y="153"/>
      <point x="427" y="129"/>
      <point x="385" y="129" type="qcurve"/>
      <point x="309" y="129"/>
      <point x="237" y="185"/>
      <point x="237" y="244" type="qcurve"/>
      <point x="237" y="300"/>
      <point x="281" y="420"/>
      <point x="315" y="454" type="qcurve"/>
      <point x="346" y="485"/>
      <point x="430" y="515"/>
      <point x="485" y="515" type="qcurve"/>
      <point x="583" y="515" type="line"/>
      <point x="586" y="535"/>
      <point x="588" y="560"/>
      <point x="588" y="570" type="qcurve"/>
      <point x="588" y="629"/>
      <point x="529" y="680"/>
      <point x="457" y="680" type="qcurve"/>
      <point x="397" y="680"/>
      <point x="309" y="643"/>
      <point x="269" y="603" type="qcurve"/>
      <point x="205" y="539"/>
      <point x="98" y="232"/>
      <point x="98" y="127" type="qcurve"/>
      <point x="98" y="44"/>
      <point x="181" y="-34"/>
      <point x="270" y="-34" type="qcurve"/>
      <point x="298" y="-34"/>
      <point x="362" y="-26"/>
    </contour>
    <contour>
      <point x="361" y="429" type="qcurve"/>
      <point x="335" y="403"/>
      <point x="293" y="293"/>
      <point x="293" y="249" type="qcurve"/>
      <point x="293" y="210"/>
      <point x="335" y="175"/>
      <point x="382" y="175" type="qcurve"/>
      <point x="413" y="175"/>
      <point x="460" y="194"/>
      <point x="480" y="214" type="qcurve"/>
      <point x="506" y="240"/>
      <point x="559" y="384"/>
      <point x="576" y="469" type="qcurve"/>
      <point x="469" y="469" type="line"/>
      <point x="434" y="469"/>
      <point x="381" y="449"/>
    </contour>
  </outline>
</glyph>
<glyph name="C" format="2">
  <advance width="614"/>
  <unicode hex="0043"/>
  <outline>
    <contour>
      <point x="266" y="-15" type="qcurve"/>
      <point x="170" y="-15"/>
      <point x="69" y="91"/>
      <point x="69" y="193" type="qcurve"/>
      <point x="69" y="279"/>
      <point x="119" y="444"/>
      <point x="164" y="510" type="qcurve"/>
      <point x="217" y="587"/>
      <point x="361" y="670"/>
      <point x="443" y="670" type="qcurve"/>
      <point x="507" y="670"/>
      <point x="598" y="629"/>
      <point x="656" y="576" type="qcurve"/>
      <point x="616" y="532" type="line"/>
      <point x="567" y="579"/>
      <point x="491" y="619"/>
      <point x="441" y="619" type="qcurve"/>
      <point x="372" y="619"/>
      <point x="252" y="543"/>
      <point x="208" y="471" type="qcurve"/>
      <point x="172" y="413"/>
      <point x="133" y="269"/>
      <point x="133" y="195" type="qcurve"/>
      <point x="133" y="120"/>
      <point x="204" y="36"/>
      <point x="265" y="36" type="qcurve"/>
      <point x="313" y="36"/>
      <point x="414" y="77"/>
      <point x="492" y="127" type="qcurve"/>
      <point x="524" y="81" type="line"/>
      <point x="442" y="27"/>
      <point x="329" y="-15"/>
    </contour>
  </outline>
</glyph>
<glyph name="D" format="2">
  <advance width="614"/>
  <unicode hex="0044"/>
  <outline>
    <contour>
      <point x="34" y="0" type="line"/>
      <point x="222" y="655" type="line"/>
      <point x="312" y="655" type="line"/>
      <point x="391" y="655"/>
      <point x="508" y="618"/>
      <point x="544" y="582" type="qcurve"/>
      <point x="574" y="552"/>
      <point x="604" y="470"/>
      <point x="604" y="419" type="qcurve"/>
      <point x="604" y="334"/>
      <point x="543" y="185"/>
      <point x="485" y="127" type="qcurve"/>
      <point x="422" y="64"/>
      <point x="237" y="0"/>
      <point x="117" y="0" type="qcurve"/>
    </contour>
    <contour>
      <point x="540" y="425" type="qcurve"/>
      <point x="540" y="512"/>
      <point x="427" y="604"/>
      <point x="320" y="604" type="qcurve"/>
      <point x="268" y="604" type="line"/>
      <point x="110" y="51" type="line"/>
      <point x="307" y="51"/>
      <point x="540" y="256"/>
    </contour>
  </outline>
</glyph>
<glyph name="E" format="2">
  <advance width="614"/>
  <unicode hex="0045"/>
  <outline>
    <contour>
      <point x="37" y="0" type="line"/>
      <point x="225" y="655" type="line"/>
      <point x="655" y="655" type="line"/>
      <point x="640" y="604" type="line"/>
      <point x="271" y="604" type="line"/>
      <point x="200" y="357" type="line"/>
      <point x="505" y="357" type="line"/>
      <point x="491" y="306" type="line"/>
      <point x="186" y="306" type="line"/>
      <point x="113" y="51" type="line"/>
      <point x="491" y="51" type="line"/>
      <point x="476" y="0" type="line"/>
    </contour>
  </outline>
</glyph>
<glyph name="F" format="2">
  <advance width="614"/>
  <unicode hex="0046"/>
  <outline>
    <contour>
      <point x="37" y="0" type="line"/>
      <point x="225" y="655" type="line"/>
      <point x="651" y="655" type="line"/>
      <point x="636" y="604" type="line"/>
      <point x="271" y="604" type="line"/>
      <point x="192" y="326" type="line"/>
      <point x="520" y="326" type="line"/>
      <point x="506" y="275" type="line"/>
      <point x="177" y="275" type="line"/>
      <point x="98" y="0" type="line"/>
    </contour>
  </outline>
</glyph>
<glyph name="G" format="2">
  <advance width="614"/>
  <unicode hex="0047"/>
  <outline>
    <contour>
      <point x="623" y="655" type="qcurve"/>
      <point x="612" y="603" type="line"/>
      <point x="580" y="609"/>
      <point x="537" y="613"/>
      <point x="508" y="613" type="qcurve"/>
      <point x="424" y="613"/>
      <point x="283" y="557"/>
      <point x="232" y="503" type="qcurve"/>
      <point x="180" y="449"/>
      <point x="125" y="304"/>
      <point x="125" y="224" type="qcurve"/>
      <point x="125" y="129"/>
      <point x="221" y="36"/>
      <point x="319" y="36" type="qcurve"/>
      <point x="344" y="36"/>
      <point x="397" y="43"/>
      <point x="423" y="49" type="qcurve"/>
      <point x="503" y="292" type="line"/>
      <point x="328" y="292" type="line"/>
      <point x="342" y="343" type="line"/>
      <point x="578" y="343" type="line"/>
      <point x="470" y="7" type="line"/>
      <point x="431" y="-5"/>
      <point x="360" y="-15"/>
      <point x="316" y="-15" type="qcurve"/>
      <point x="190" y="-15"/>
      <point x="61" y="105"/>
      <point x="61" y="223" type="qcurve"/>
      <point x="61" y="314"/>
      <point x="129" y="482"/>
      <point x="192" y="543" type="qcurve"/>
      <point x="253" y="603"/>
      <point x="418" y="664"/>
      <point x="517" y="664" type="qcurve"/>
      <point x="542" y="664"/>
      <point x="590" y="660"/>
    </contour>
  </outline>
</glyph>
<glyph name="H" format="2">
  <advance width="614"/>
  <unicode hex="0048"/>
  <outline>
    <contour>
      <point x="34" y="0" type="line"/>
      <point x="222" y="655" type="line"/>
      <point x="283" y="655" type="line"/>
      <point x="197" y="356" type="line"/>
      <point x="489" y="356" type="line"/>
      <point x="575" y="655" type="line"/>
      <point x="636" y="655" type="line"/>
      <point x="448" y="0" type="line"/>
      <point x="387" y="0" type="line"/>
      <point x="475" y="305" type="line"/>
      <point x="183" y="305" type="line"/>
      <point x="95" y="0" type="line"/>
    </contour>
  </outline>
</glyph>
<glyph name="L" format="2">
  <advance width="614"/>
  <unicode hex="004C"/>
  <outline>
    <contour>
      <point x="37" y="0" type="line"/>
      <point x="225" y="655" type="line"/>
      <point x="286" y="655" type="line"/>
      <point x="112" y="50" type="line"/>
      <point x="487" y="50" type="line"/>
      <point x="473" y="0" type="line"/>
    </contour>
  </outline>
</glyph>
<glyph name="M" format="2">
  <advance width="614"/>
  <unicode hex="004D"/>
  <outline>
    <contour>
      <point x="559" y="655" type="line"/>
      <point x="644" y="655" type="line"/>
      <point x="481" y="0" type="line"/>
      <point x="422" y="0" type="line"/>
      <point x="574" y="593" type="line"/>
      <point x="305" y="185" type="line"/>
      <point x="284" y="185" type="line"/>
      <point x="244" y="581" type="line"/>
      <point x="60" y="0" type="line"/>
      <point x="1" y="0" type="line"/>
      <point x="214" y="655" type="line"/>
      <point x="287" y="655" type="line"/>
      <point x="323" y="299" type="line"/>
    </contour>
  </outline>
</glyph>
<glyph name="N" format="2">
  <advance width="614"/>
  <unicode hex="004E"/>
  <outline>
    <contour>
      <point x="261" y="616" type="line"/>
      <point x="89" y="0" type="line"/>
      <point x="31" y="0" type="line"/>
      <point x="219" y="655" type="line"/>
      <point x="309" y="655" type="line"/>
      <point x="413" y="55" type="line"/>
      <point x="581" y="655" type="line"/>
      <point x="639" y="655" type="line"/>
      <point x="451" y="0" type="line"/>
      <point x="369" y="0" type="line"/>
    </contour>
  </outline>
</glyph>
<glyph name="R" format="2">
  <advance width="614"/>
  <unicode hex="0052"/>
  <outline>
    <contour>
      <point x="399" y="183" type="qcurve"/>
      <point x="507" y="4" type="line"/>
      <point x="506" y="0" type="line"/>
      <point x="436" y="0" type="line"/>
      <point x="335" y="174" type="line"/>
      <point x="299" y="237"/>
      <point x="241" y="275"/>
      <point x="177" y="277" type="qcurve"/>
      <point x="98" y="0" type="line"/>
      <point x="37" y="0" type="line"/>
      <point x="225" y="655" type="line"/>
      <point x="441" y="655" type="line"/>
      <point x="521" y="655"/>
      <point x="614" y="579"/>
      <point x="614" y="515" type="qcurve"/>
      <point x="614" y="408"/>
      <point x="464" y="297"/>
      <point x="308" y="287" type="qcurve"/>
      <point x="308" y="282" type="line"/>
      <point x="337" y="265"/>
      <point x="375" y="223"/>
    </contour>
    <contour>
      <point x="550" y="516" type="qcurve"/>
      <point x="550" y="559"/>
      <point x="489" y="605"/>
      <point x="432" y="605" type="qcurve"/>
      <point x="272" y="605" type="line"/>
      <point x="191" y="326" type="line"/>
      <point x="284" y="329" type="line"/>
      <point x="418" y="334"/>
      <point x="550" y="427"/>
    </contour>
  </outline>
</glyph>
<glyph name="V" format="2">
  <advance width="614"/>
  <unicode hex="0056"/>
  <outline>
    <contour>
      <point x="205" y="0" type="line"/>
      <point x="168" y="655" type="line"/>
      <point x="226" y="655" type="line"/>
      <point x="258" y="68" type="line"/>
      <point x="624" y="655" type="line"/>
      <point x="690" y="655" type="line"/>
      <point x="277" y="0" type="line"/>
    </contour>
  </outline>
</glyph>
<glyph name="W" format="2">
  <advance width="614"/>
  <unicode hex="0057"/>
  <outline>
    <contour>
      <point x="685" y="655" type="line"/>
      <point x="405" y="0" type="line"/>
      <point x="330" y="0" type="line"/>
      <point x="348" y="377" type="line"/>
      <point x="150" y="0" type="line"/>
      <point x="77" y="0" type="line"/>
      <point x="173" y="655" type="line"/>
      <point x="232" y="655" type="line"/>
      <point x="136" y="68" type="line"/>
      <point x="379" y="531" type="line"/>
      <point x="403" y="531" type="line"/>
      <point x="381" y="63" type="line"/>
      <point x="624" y="655" type="line"/>
    </contour>
  </outline>
</glyph>
<glyph name="underscore" format="2">
  <advance width="614"/>
  <unicode hex="005F"/>
  <outline>
    <contour>
      <point x="-11" y="-81" type="line"/>
      <point x="5" y="-26" type="line"/>
      <point x="463" y="-26" type="line"/>
      <point x="447" y="-81" type="line"/>
    </contour>
  </outline>
</glyph>
<glyph name="grave" format="2">
  <advance width="614"/>
  <unicode hex="0060"/>
  <outline>
    <contour>
      <point x="493" y="426" type="line"/>
      <point x="435" y="426" type="line"/>
      <point x="295" y="710" type="line"/>
      <point x="395" y="710" type="line"/>
    </contour>
  </outline>
</glyph>
<glyph name="c" format="2">
  <advance width="614"/>
  <unicode hex="0063"/>
  <outline>
    <contour>
      <point x="375" y="425" type="qcurve"/>
      <point x="329" y="425"/>
      <point x="241" y="387"/>
      <point x="207" y="353" type="qcurve"/>
      <point x="171" y="317"/>
      <point x="128" y="215"/>
      <point x="128" y="167" type="qcurve"/>
      <point x="128" y="107"/>
      <point x="199" y="35"/>
      <point x="259" y="35" type="qcurve"/>
      <point x="301" y="35"/>
      <point x="401" y="65"/>
      <point x="471" y="98" type="qcurve"/>
      <point x="494" y="51" type="line"/>
      <point x="424" y="16"/>
      <point x="310" y="-15"/>
      <point x="245" y="-15" type="qcurve"/>
      <point x="161" y="-15"/>
      <point x="64" y="79"/>
      <point x="64" y="161" type="qcurve"/>
      <point x="64" y="225"/>
      <point x="111" y="339"/>
      <point x="156" y="384" type="qcurve"/>
      <point x="199" y="427"/>
      <point x="310" y="475"/>
      <point x="367" y="475" type="qcurve"/>
      <point x="422" y="475"/>
      <point x="514" y="445"/>
      <point x="574" y="406" type="qcurve"/>
      <point x="541" y="357" type="line"/>
      <point x="482" y="396"/>
      <point x="410" y="425"/>
    </contour>
  </outline>
</glyph>
<glyph name="f" format="2">
  <advance width="614"/>
  <unicode hex="0066"/>
  <outline>
    <contour>
      <point x="289" y="410" type="line"/>
      <point x="128" y="410" type="line"/>
      <point x="142" y="460" type="line"/>
      <point x="303" y="460" type="line"/>
      <point x="325" y="537" type="line"/>
      <point x="351" y="630"/>
      <point x="448" y="704"/>
      <point x="551" y="711" type="qcurve"/>
      <point x="667" y="719" type="line"/>
      <point x="667" y="667" type="line"/>
      <point x="543" y="659" type="line"/>
      <point x="473" y="655"/>
      <point x="402" y="600"/>
      <point x="383" y="534" type="qcurve"/>
      <point x="362" y="460" type="line"/>
      <point x="569" y="460" type="line"/>
      <point x="555" y="410" type="line"/>
      <point x="348" y="410" type="line"/>
      <point x="230" y="0" type="line"/>
      <point x="171" y="0" type="line"/>
    </contour>
  </outline>
</glyph>
<glyph name="g" format="2">
  <advance width="614"/>
  <unicode hex="0067"/>
  <outline>
    <contour>
      <point x="397" y="29" type="qcurve"/>
      <point x="424" y="124" type="line"/>
      <point x="367" y="67"/>
      <point x="268" y="16"/>
      <point x="214" y="16" type="qcurve"/>
      <point x="142" y="16"/>
      <point x="54" y="108"/>
      <point x="54" y="184" type="qcurve"/>
      <point x="54" y="306"/>
      <point x="245" y="468"/>
      <point x="395" y="468" type="qcurve"/>
      <point x="437" y="468"/>
      <point x="525" y="447"/>
      <point x="570" y="426" type="qcurve"/>
      <point x="458" y="32" type="line"/>
      <point x="434" y="-51"/>
      <point x="385" y="-145"/>
      <point x="352" y="-172" type="qcurve"/>
      <point x="319" y="-199"/>
      <point x="219" y="-227"/>
      <point x="132" y="-232" type="qcurve"/>
      <point x="17" y="-239" type="line"/>
      <point x="17" y="-188" type="line"/>
      <point x="126" y="-182" type="line"/>
      <point x="256" y="-175"/>
      <point x="362" y="-91"/>
    </contour>
    <contour>
      <point x="399" y="418" type="qcurve"/>
      <point x="272" y="418"/>
      <point x="116" y="283"/>
      <point x="116" y="187" type="qcurve"/>
      <point x="116" y="133"/>
      <point x="174" y="66"/>
      <point x="220" y="66" type="qcurve"/>
      <point x="273" y="66"/>
      <point x="368" y="122"/>
      <point x="444" y="193" type="qcurve"/>
      <point x="503" y="398" type="line"/>
      <point x="478" y="408"/>
      <point x="427" y="418"/>
    </contour>
  </outline>
</glyph>
<glyph name="l" format="2">
  <advance width="614"/>
  <unicode hex="006C"/>
  <outline>
    <contour>
      <point x="206" y="119" type="qcurve"/>
      <point x="206" y="145"/>
      <point x="219" y="203"/>
      <point x="234" y="244" type="qcurve"/>
      <point x="386" y="660" type="line"/>
      <point x="187" y="660" type="line"/>
      <point x="202" y="710" type="line"/>
      <point x="463" y="710" type="line"/>
      <point x="291" y="236" type="line"/>
      <point x="278" y="200"/>
      <point x="267" y="151"/>
      <point x="267" y="127" type="qcurve"/>
      <point x="267" y="86"/>
      <point x="306" y="50"/>
      <point x="352" y="48" type="qcurve"/>
      <point x="468" y="44" type="line"/>
      <point x="453" y="-7" type="line"/>
      <point x="345" y="-4" type="line"/>
      <point x="274" y="-2"/>
      <point x="206" y="59"/>
    </contour>
  </outline>
</glyph>
<glyph name="p" format="2">
  <advance width="614"/>
  <unicode hex="0070"/>
  <outline>
    <contour>
      <point x="27" y="-230" type="line"/>
      <point x="-32" y="-230" type="line"/>
      <point x="166" y="460" type="line"/>
      <point x="215" y="460" type="line"/>
      <point x="195" y="363" type="line"/>
      <point x="251" y="419"/>
      <point x="344" y="468"/>
      <point x="394" y="468" type="qcurve"/>
      <point x="470" y="468"/>
      <point x="557" y="378"/>
      <point x="557" y="300" type="qcurve"/>
      <point x="557" y="167"/>
      <point x="370" y="-8"/>
      <point x="221" y="-8" type="qcurve"/>
      <point x="189" y="-8"/>
      <point x="127" y="4"/>
      <point x="97" y="16" type="qcurve"/>
    </contour>
    <contour>
      <point x="495" y="297" type="qcurve"/>
      <point x="495" y="351"/>
      <point x="435" y="418"/>
      <point x="388" y="418" type="qcurve"/>
      <point x="339" y="418"/>
      <point x="251" y="365"/>
      <point x="178" y="297" type="qcurve"/>
      <point x="112" y="66" type="line"/>
      <point x="135" y="54"/>
      <point x="190" y="42"/>
      <point x="222" y="42" type="qcurve"/>
      <point x="344" y="42"/>
      <point x="495" y="191"/>
    </contour>
  </outline>
</glyph>
<glyph name="r" format="2">
  <advance width="614"/>
  <unicode hex="0072"/>
  <outline>
    <contour>
      <point x="-13" y="0" type="line"/>
      <point x="2" y="50" type="line"/>
      <point x="131" y="50" type="line"/>
      <point x="235" y="410" type="line"/>
      <point x="125" y="410" type="line"/>
      <point x="139" y="460" type="line"/>
      <point x="303" y="460" type="line"/>
      <point x="257" y="286" type="line"/>
      <point x="362" y="396"/>
      <point x="450" y="454"/>
      <point x="524" y="459" type="qcurve"/>
      <point x="593" y="463" type="line"/>
      <point x="593" y="403" type="line"/>
      <point x="513" y="396" type="line"/>
      <point x="485" y="393"/>
      <point x="445" y="386"/>
      <point x="425" y="376" type="qcurve"/>
      <point x="393" y="360"/>
      <point x="287" y="265"/>
      <point x="239" y="219" type="qcurve"/>
      <point x="190" y="50" type="line"/>
      <point x="351" y="50" type="line"/>
      <point x="336" y="0" type="line"/>
    </contour>
  </outline>
</glyph>
<glyph name="s" format="2">
  <advance width="614"/>
  <unicode hex="0073"/>
  <outline>
    <contour>
      <point x="480" y="118" type="qcurve"/>
      <point x="480" y="56"/>
      <point x="380" y="-9"/>
      <point x="283" y="-9" type="qcurve"/>
      <point x="226" y="-9"/>
      <point x="119" y="7"/>
      <point x="46" y="26" type="qcurve"/>
      <point x="63" y="79" type="line"/>
      <point x="121" y="60"/>
      <point x="231" y="42"/>
      <point x="286" y="42" type="qcurve"/>
      <point x="352" y="42"/>
      <point x="420" y="78"/>
      <point x="420" y="112" type="qcurve"/>
      <point x="420" y="138"/>
      <point x="387" y="171"/>
      <point x="343" y="192" type="qcurve"/>
      <point x="277" y="223" type="line"/>
      <point x="207" y="256"/>
      <point x="151" y="311"/>
      <point x="151" y="352" type="qcurve"/>
      <point x="151" y="409"/>
      <point x="247" y="468"/>
      <point x="340" y="468" type="qcurve"/>
      <point x="384" y="468"/>
      <point x="501" y="450"/>
      <point x="554" y="435" type="qcurve"/>
      <point x="539" y="383" type="line"/>
      <point x="487" y="400"/>
      <point x="386" y="417"/>
      <point x="340" y="417" type="qcurve"/>
      <point x="275" y="417"/>
      <point x="211" y="388"/>
      <point x="211" y="358" type="qcurve"/>
      <point x="211" y="333"/>
      <point x="242" y="303"/>
      <point x="289" y="280" type="qcurve"/>
      <point x="355" y="248" type="line"/>
      <point x="433" y="210"/>
      <point x="480" y="161"/>
    </contour>
  </outline>
</glyph>
<glyph name="w" format="2">
  <advance width="614"/>
  <unicode hex="0077"/>
  <outline>
    <contour>
      <point x="630" y="460" type="line"/>
      <point x="394" y="0" type="line"/>
      <point x="329" y="0" type="line"/>
      <point x="318" y="268" type="line"/>
      <point x="151" y="0" type="line"/>
      <point x="86" y="0" type="line"/>
      <point x="116" y="460" type="line"/>
      <point x="168" y="460" type="line"/>
      <point x="135" y="54" type="line"/>
      <point x="341" y="390" type="line"/>
      <point x="359" y="390" type="line"/>
      <point x="373" y="58" type="line"/>
      <point x="571" y="460" type="line"/>
    </contour>
  </outline>
</glyph>
<glyph name="y" format="2">
  <advance width="614"/>
  <unicode hex="0079"/>
  <outline>
    <contour>
      <point x="611" y="460" type="line"/>
      <point x="195" y="-130" type="line"/>
      <point x="145" y="-201"/>
      <point x="94" y="-228"/>
      <point x="19" y="-230" type="qcurve"/>
      <point x="-76" y="-233" type="line"/>
      <point x="-77" y="-182" type="line"/>
      <point x="18" y="-179" type="line"/>
      <point x="71" y="-177"/>
      <point x="109" y="-155"/>
      <point x="147" y="-103" type="qcurve"/>
      <point x="209" y="-18" type="line"/>
      <point x="127" y="460" type="line"/>
      <point x="186" y="460" type="line"/>
      <point x="251" y="42" type="line"/>
      <point x="538" y="460" type="line"/>
    </contour>
  </outline>
</glyph>
<glyph name="z" format="2">
  <advance width="614"/>
  <unicode hex="007A"/>
  <outline>
    <contour>
      <point x="473" y="0" type="line"/>
      <point x="33" y="0" type="line"/>
      <point x="33" y="29" type="line"/>
      <point x="477" y="407" type="line"/>
      <point x="477" y="410" type="line"/>
      <point x="141" y="410" type="line"/>
      <point x="155" y="460" type="line"/>
      <point x="581" y="460" type="line"/>
      <point x="581" y="431" type="line"/>
      <point x="141" y="53" type="line"/>
      <point x="141" y="51" type="line"/>
      <point x="488" y="51" type="line"/>
    </contour>
  </outline>
</glyph>
<glyph name="braceright" format="2">
  <advance width="614"/>
  <unicode hex="007D"/>
  <outline>
    <contour>
      <point x="340" y="-9" type="qcurve"/>
      <point x="340" y="-49"/>
      <point x="279" y="-96"/>
      <point x="218" y="-104" type="qcurve"/>
      <point x="-20" y="-135" type="line"/>
      <point x="-6" y="-85" type="line"/>
      <point x="225" y="-54" type="line"/>
      <point x="253" y="-50"/>
      <point x="281" y="-30"/>
      <point x="281" y="-13" type="qcurve"/>
      <point x="281" y="-4"/>
      <point x="272" y="20"/>
      <point x="262" y="37" type="qcurve"/>
      <point x="229" y="94" type="line"/>
      <point x="209" y="128"/>
      <point x="196" y="162"/>
      <point x="196" y="178" type="qcurve"/>
      <point x="196" y="214"/>
      <point x="256" y="260"/>
      <point x="323" y="284" type="qcurve"/>
      <point x="356" y="296"/>
      <point x="441" y="321"/>
      <point x="494" y="335" type="qcurve"/>
      <point x="494" y="338" type="line"/>
      <point x="451" y="352"/>
      <point x="391" y="372"/>
      <point x="369" y="381" type="qcurve"/>
      <point x="317" y="401"/>
      <point x="277" y="433"/>
      <point x="277" y="460" type="qcurve"/>
      <point x="277" y="481"/>
      <point x="315" y="529"/>
      <point x="364" y="572" type="qcurve"/>
      <point x="429" y="629" type="line"/>
      <point x="462" y="658"/>
      <point x="482" y="681"/>
      <point x="482" y="693" type="qcurve"/>
      <point x="482" y="703"/>
      <point x="465" y="715"/>
      <point x="447" y="718" type="qcurve"/>
      <point x="233" y="749" type="line"/>
      <point x="247" y="797" type="line"/>
      <point x="468" y="766" type="line"/>
      <point x="505" y="761"/>
      <point x="543" y="729"/>
      <point x="543" y="704" type="qcurve"/>
      <point x="543" y="679"/>
      <point x="509" y="633"/>
      <point x="462" y="592" type="qcurve"/>
      <point x="397" y="535" type="line"/>
      <point x="361" y="503"/>
      <point x="340" y="479"/>
      <point x="340" y="464" type="qcurve"/>
      <point x="340" y="443"/>
      <point x="449" y="396"/>
      <point x="573" y="361" type="qcurve"/>
      <point x="555" y="301" type="line"/>
      <point x="504" y="288"/>
      <point x="424" y="267"/>
      <point x="393" y="258" type="qcurve"/>
      <point x="319" y="236"/>
      <point x="259" y="202"/>
      <point x="259" y="177" type="qcurve"/>
      <point x="259" y="168"/>
      <point x="269" y="143"/>
      <point x="279" y="125" type="qcurve"/>
      <point x="311" y="68" type="line"/>
      <point x="327" y="39"/>
      <point x="340" y="4"/>
    </contour>
  </outline>
</glyph>
<glyph name="sterling" format="2">
  <advance width="614"/>
  <unicode hex="00A3"/>
  <outline>
    <contour>
      <point x="485" y="0" type="line"/>
      <point x="10" y="0" type="line"/>
      <point x="10" y="37" type="line"/>
      <point x="111" y="112"/>
      <point x="223" y="214"/>
      <point x="240" y="248" type="qcurve"/>
      <point x="93" y="248" type="line"/>
      <point x="106" y="296" type="line"/>
      <point x="249" y="296" type="line"/>
      <point x="248" y="308"/>
      <point x="237" y="333"/>
      <point x="223" y="358" type="qcurve"/>
      <point x="199" y="399"/>
      <point x="183" y="453"/>
      <point x="183" y="482" type="qcurve"/>
      <point x="183" y="563"/>
      <point x="315" y="670"/>
      <point x="421" y="670" type="qcurve"/>
      <point x="499" y="670"/>
      <point x="598" y="607"/>
      <point x="632" y="534" type="qcurve"/>
      <point x="576" y="508" type="line"/>
      <point x="552" y="567"/>
      <point x="476" y="619"/>
      <point x="418" y="619" type="qcurve"/>
      <point x="342" y="619"/>
      <point x="247" y="541"/>
      <point x="247" y="483" type="qcurve"/>
      <point x="247" y="463"/>
      <point x="260" y="421"/>
      <point x="281" y="384" type="qcurve"/>
      <point x="300" y="349"/>
      <point x="312" y="313"/>
      <point x="312" y="296" type="qcurve"/>
      <point x="530" y="296" type="line"/>
      <point x="517" y="248" type="line"/>
      <point x="306" y="248" type="line"/>
      <point x="294" y="215"/>
      <point x="202" y="125"/>
      <point x="107" y="51" type="qcurve"/>
      <point x="500" y="51" type="line"/>
    </contour>
  </outline>
</glyph>
<glyph name="registered" format="2">
  <advance width="614"/>
  <unicode hex="00AE"/>
  <outline>
    <contour>
      <point x="629" y="537" type="qcurve"/>
      <point x="629" y="477"/>
      <point x="582" y="356"/>
      <point x="541" y="309" type="qcurve"/>
      <point x="498" y="260"/>
      <point x="385" y="208"/>
      <point x="320" y="208" type="qcurve"/>
      <point x="226" y="208"/>
      <point x="121" y="307"/>
      <point x="121" y="396" type="qcurve"/>
      <point x="121" y="456"/>
      <point x="167" y="577"/>
      <point x="208" y="624" type="qcurve"/>
      <point x="251" y="673"/>
      <point x="363" y="725"/>
      <point x="427" y="725" type="qcurve"/>
      <point x="523" y="725"/>
      <point x="629" y="626"/>
    </contour>
    <contour>
      <point x="588" y="536" type="qcurve"/>
      <point x="588" y="609"/>
      <point x="504" y="689"/>
      <point x="426" y="689" type="qcurve"/>
      <point x="371" y="689"/>
      <point x="275" y="641"/>
      <point x="237" y="596" type="qcurve"/>
      <point x="202" y="554"/>
      <point x="162" y="447"/>
      <point x="162" y="397" type="qcurve"/>
      <point x="162" y="324"/>
      <point x="245" y="243"/>
      <point x="320" y="243" type="qcurve"/>
      <point x="376" y="243"/>
      <point x="473" y="290"/>
      <point x="511" y="335" type="qcurve"/>
      <point x="547" y="378"/>
      <point x="588" y="485"/>
    </contour>
    <contour>
      <point x="430" y="416" type="qcurve"/>
      <point x="472" y="345" type="line"/>
      <point x="472" y="343" type="line"/>
      <point x="421" y="343" type="line"/>
      <point x="381" y="412" type="line"/>
      <point x="366" y="438"/>
      <point x="344" y="453"/>
      <point x="323" y="454" type="qcurve"/>
      <point x="291" y="343" type="line"/>
      <point x="249" y="343" type="line"/>
      <point x="324" y="604" type="line"/>
      <point x="436" y="604" type="line"/>
      <point x="473" y="604"/>
      <point x="515" y="571"/>
      <point x="515" y="542" type="qcurve"/>
      <point x="515" y="503"/>
      <point x="455" y="462"/>
      <point x="393" y="458" type="qcurve"/>
      <point x="393" y="456" type="line"/>
      <point x="404" y="450"/>
      <point x="419" y="434"/>
    </contour>
    <contour>
      <point x="471" y="535" type="qcurve"/>
      <point x="471" y="550"/>
      <point x="447" y="567"/>
      <point x="424" y="567" type="qcurve"/>
      <point x="355" y="567" type="line"/>
      <point x="331" y="483" type="line"/>
      <point x="365" y="484" type="line"/>
      <point x="419" y="485"/>
      <point x="471" y="510"/>
    </contour>
  </outline>
</glyph>
<glyph name="plusminus" format="2">
  <advance width="614"/>
  <unicode hex="00B1"/>
  <outline>
    <contour>
      <point x="330" y="415" type="line"/>
      <point x="126" y="415" type="line"/>
      <point x="141" y="466" type="line"/>
      <point x="345" y="466" type="line"/>
      <point x="399" y="655" type="line"/>
      <point x="458" y="655" type="line"/>
      <point x="404" y="466" type="line"/>
      <point x="609" y="466" type="line"/>
      <point x="594" y="415" type="line"/>
      <point x="389" y="415" type="line"/>
      <point x="334" y="224" type="line"/>
      <point x="275" y="224" type="line"/>
    </contour>
    <contour>
      <point x="490" y="51" type="line"/>
      <point x="475" y="0" type="line"/>
      <point x="7" y="0" type="line"/>
      <point x="22" y="51" type="line"/>
    </contour>
  </outline>
</glyph>
<glyph name="ordmasculine" format="2">
  <advance width="614"/>
  <unicode hex="00BA"/>
  <outline>
    <contour>
      <point x="192" y="471" type="qcurve"/>
      <point x="192" y="562"/>
      <point x="327" y="692"/>
      <point x="417" y="692" type="qcurve"/>
      <point x="490" y="692"/>
      <point x="582" y="610"/>
      <point x="582" y="543" type="qcurve"/>
      <point x="582" y="452"/>
      <point x="447" y="322"/>
      <point x="357" y="322" type="qcurve"/>
      <point x="284" y="322"/>
      <point x="192" y="404"/>
    </contour>
    <contour>
      <point x="242" y="474" type="qcurve"/>
      <point x="242" y="426"/>
      <point x="304" y="367"/>
      <point x="357" y="367" type="qcurve"/>
      <point x="426" y="367"/>
      <point x="532" y="469"/>
      <point x="532" y="540" type="qcurve"/>
      <point x="532" y="588"/>
      <point x="470" y="647"/>
      <point x="417" y="647" type="qcurve"/>
      <point x="348" y="647"/>
      <point x="242" y="545"/>
    </contour>
    <contour>
      <point x="114" y="187" type="line"/>
      <point x="127" y="234" type="line"/>
      <point x="492" y="234" type="line"/>
      <point x="479" y="187" type="line"/>
    </contour>
  </outline>
</glyph>
<glyph name="guillemetright" format="2">
  <advance width="614"/>
  <unicode hex="00BB"/>
  <outline>
    <contour>
      <point x="554" y="253" type="line"/>
      <point x="540" y="202" type="line"/>
      <point x="242" y="-15" type="line"/>
      <point x="263" y="56" type="line"/>
      <point x="494" y="233" type="line"/>
      <point x="366" y="417" type="line"/>
      <point x="382" y="471" type="line"/>
    </contour>
    <contour>
      <point x="327" y="273" type="line"/>
      <point x="313" y="222" type="line"/>
      <point x="15" y="-15" type="line"/>
      <point x="36" y="56" type="line"/>
      <point x="267" y="252" type="line"/>
      <point x="139" y="417" type="line"/>
      <point x="155" y="471" type="line"/>
    </contour>
  </outline>
</glyph>
<glyph name="Aring" format="2">
  <advance width="614"/>
  <unicode hex="00C5"/>
  <outline>
    <contour>
      <point x="171" y="201" type="line"/>
      <point x="47" y="0" type="line"/>
      <point x="-20" y="0" type="line"/>
      <point x="370" y="618" type="line"/>
      <point x="334" y="629"/>
      <point x="295" y="674"/>
      <point x="295" y="706" type="qcurve"/>
      <point x="295" y="763"/>
      <point x="383" y="834"/>
      <point x="461" y="834" type="qcurve"/>
      <point x="523" y="834"/>
      <point x="599" y="782"/>
      <point x="599" y="737" type="qcurve"/>
      <point x="599" y="687"/>
      <point x="530" y="619"/>
      <point x="469" y="611" type="qcurve"/>
      <point x="502" y="0" type="line"/>
      <point x="442" y="0" type="line"/>
      <point x="432" y="201" type="line"/>
    </contour>
    <contour>
      <point x="550" y="735" type="qcurve"/>
      <point x="550" y="762"/>
      <point x="499" y="790"/>
      <point x="451" y="790" type="qcurve"/>
      <point x="403" y="790"/>
      <point x="344" y="743"/>
      <point x="344" y="708" type="qcurve"/>
      <point x="344" y="681"/>
      <point x="395" y="653"/>
      <point x="443" y="653" type="qcurve"/>
      <point x="491" y="653"/>
      <point x="550" y="700"/>
    </contour>
    <contour>
      <point x="414" y="596" type="line"/>
      <point x="202" y="252" type="line"/>
      <point x="430" y="252" type="line"/>
    </contour>
  </outline>
</glyph>
<glyph name="Ccedilla" format="2">
  <advance width="614"/>
  <unicode hex="00C7"/>
  <outline>
    <contour>
      <point x="376" y="-151" type="qcurve"/>
      <point x="376" y="-192"/>
      <point x="320" y="-233"/>
      <point x="255" y="-247" type="qcurve"/>
      <point x="223" y="-253"/>
      <point x="139" y="-265"/>
      <point x="85" y="-270" type="qcurve"/>
      <point x="85" y="-221" type="line"/>
      <point x="124" y="-217"/>
      <point x="186" y="-210"/>
      <point x="210" y="-207" type="qcurve"/>
      <point x="266" y="-198"/>
      <point x="312" y="-177"/>
      <point x="312" y="-155" type="qcurve"/>
      <point x="312" y="-135"/>
      <point x="256" y="-116"/>
      <point x="179" y="-108" type="qcurve"/>
      <point x="176" y="-98" type="line"/>
      <point x="231" y="-13" type="line"/>
      <point x="152" y="-4"/>
      <point x="69" y="101"/>
      <point x="69" y="193" type="qcurve"/>
      <point x="69" y="279"/>
      <point x="119" y="444"/>
      <point x="164" y="510" type="qcurve"/>
      <point x="217" y="587"/>
      <point x="361" y="670"/>
      <point x="443" y="670" type="qcurve"/>
      <point x="507" y="670"/>
      <point x="598" y="629"/>
      <point x="656" y="576" type="qcurve"/>
      <point x="616" y="532" type="line"/>
      <point x="567" y="579"/>
      <point x="491" y="619"/>
      <point x="441" y="619" type="qcurve"/>
      <point x="372" y="619"/>
      <point x="252" y="543"/>
      <point x="208" y="471" type="qcurve"/>
      <point x="172" y="413"/>
      <point x="133" y="269"/>
      <point x="133" y="195" type="qcurve"/>
      <point x="133" y="120"/>
      <point x="204" y="36"/>
      <point x="265" y="36" type="qcurve"/>
      <point x="313" y="36"/>
      <point x="414" y="77"/>
      <point x="492" y="127" type="qcurve"/>
      <point x="524" y="81" type="line"/>
      <point x="444" y="28"/>
      <point x="334" y="-14"/>
      <point x="274" y="-15" type="qcurve"/>
      <point x="242" y="-66" type="line"/>
      <point x="318" y="-78"/>
      <point x="376" y="-112"/>
    </contour>
  </outline>
</glyph>
<glyph name="Eth" format="2">
  <advance width="614"/>
  <unicode hex="00D0"/>
  <outline>
    <contour>
      <point x="142" y="308" type="line"/>
      <point x="56" y="308" type="line"/>
      <point x="69" y="352" type="line"/>
      <point x="155" y="352" type="line"/>
      <point x="242" y="655" type="line"/>
      <point x="323" y="655" type="line"/>
      <point x="400" y="655"/>
      <point x="510" y="620"/>
      <point x="547" y="583" type="qcurve"/>
      <point x="576" y="554"/>
      <point x="606" y="471"/>
      <point x="606" y="419" type="qcurve"/>
      <point x="606" y="334"/>
      <point x="545" y="185"/>
      <point x="487" y="127" type="qcurve"/>
      <point x="424" y="64"/>
      <point x="248" y="0"/>
      <point x="137" y="0" type="qcurve"/>
      <point x="54" y="0" type="line"/>
    </contour>
    <contour>
      <point x="356" y="352" type="line"/>
      <point x="343" y="308" type="line"/>
      <point x="203" y="308" type="line"/>
      <point x="130" y="51" type="line"/>
      <point x="318" y="51"/>
      <point x="542" y="258"/>
      <point x="542" y="425" type="qcurve"/>
      <point x="542" y="512"/>
      <point x="439" y="604"/>
      <point x="340" y="604" type="qcurve"/>
      <point x="288" y="604" type="line"/>
      <point x="216" y="352" type="line"/>
    </contour>
  </outline>
</glyph>
<glyph name="Thorn" format="2">
  <advance width="614"/>
  <unicode hex="00DE"/>
  <outline>
    <contour>
      <point x="37" y="0" type="line"/>
      <point x="225" y="655" type="line"/>
      <point x="286" y="655" type="line"/>
      <point x="241" y="497" type="line"/>
      <point x="421" y="497" type="line"/>
      <point x="507" y="497"/>
      <point x="602" y="426"/>
      <point x="602" y="362" type="qcurve"/>
      <point x="602" y="322"/>
      <point x="575" y="252"/>
      <point x="549" y="226" type="qcurve"/>
      <point x="513" y="190"/>
      <point x="408" y="158"/>
      <point x="325" y="158" type="qcurve"/>
      <point x="143" y="158" type="line"/>
      <point x="98" y="0" type="line"/>
    </contour>
    <contour>
      <point x="538" y="359" type="qcurve"/>
      <point x="538" y="402"/>
      <point x="478" y="446"/>
      <point x="418" y="446" type="qcurve"/>
      <point x="226" y="446" type="line"/>
      <point x="158" y="208" type="line"/>
      <point x="336" y="208" type="line"/>
      <point x="430" y="208"/>
      <point x="538" y="291"/>
    </contour>
  </outline>
</glyph>
<glyph name="oslash" format="2">
  <advance width="614"/>
  <unicode hex="00F8"/>
  <outline>
    <contour>
      <point x="147" y="392" type="qcurve"/>
      <point x="189" y="432"/>
      <point x="296" y="475"/>
      <point x="356" y="475" type="qcurve"/>
      <point x="393" y="475"/>
      <point x="458" y="453"/>
      <point x="484" y="432" type="qcurve"/>
      <point x="582" y="531" type="line"/>
      <point x="657" y="531" type="line"/>
      <point x="516" y="398" type="line"/>
      <point x="535" y="372"/>
      <point x="556" y="308"/>
      <point x="556" y="273" type="qcurve"/>
      <point x="556" y="217"/>
      <point x="509" y="109"/>
      <point x="467" y="68" type="qcurve"/>
      <point x="425" y="28"/>
      <point x="318" y="-15"/>
      <point x="258" y="-15" type="qcurve"/>
      <point x="220" y="-15"/>
      <point x="156" y="7"/>
      <point x="129" y="29" type="qcurve"/>
      <point x="32" y="-71" type="line"/>
      <point x="-43" y="-71" type="line"/>
      <point x="98" y="62" type="line"/>
      <point x="78" y="88"/>
      <point x="58" y="152"/>
      <point x="58" y="187" type="qcurve"/>
      <point x="58" y="243"/>
      <point x="105" y="351"/>
    </contour>
    <contour>
      <point x="351" y="426" type="qcurve"/>
      <point x="258" y="426"/>
      <point x="118" y="281"/>
      <point x="118" y="185" type="qcurve"/>
      <point x="118" y="162"/>
      <point x="129" y="120"/>
      <point x="140" y="102" type="qcurve"/>
      <point x="443" y="394" type="line"/>
      <point x="424" y="410"/>
      <point x="377" y="426"/>
    </contour>
    <contour>
      <point x="263" y="34" type="qcurve"/>
      <point x="356" y="34"/>
      <point x="496" y="179"/>
      <point x="496" y="275" type="qcurve"/>
      <point x="496" y="298"/>
      <point x="485" y="340"/>
      <point x="474" y="359" type="qcurve"/>
      <point x="170" y="67" type="line"/>
      <point x="189" y="51"/>
      <point x="237" y="34"/>
    </contour>
  </outline>
</glyph>
<glyph name="thorn" format="2">
  <advance width="614"/>
  <unicode hex="00FE"/>
  <outline>
    <contour>
      <point x="27" y="-230" type="line"/>
      <point x="-32" y="-230" type="line"/>
      <point x="238" y="710" type="line"/>
      <point x="297" y="710" type="line"/>
      <point x="199" y="367" type="line"/>
      <point x="253" y="420"/>
      <point x="345" y="468"/>
      <point x="394" y="468" type="qcurve"/>
      <point x="470" y="468"/>
      <point x="557" y="378"/>
      <point x="557" y="300" type="qcurve"/>
      <point x="557" y="167"/>
      <point x="370" y="-8"/>
      <point x="221" y="-8" type="qcurve"/>
      <point x="189" y="-8"/>
      <point x="128" y="4"/>
      <point x="98" y="16" type="qcurve"/>
    </contour>
    <contour>
      <point x="495" y="297" type="qcurve"/>
      <point x="495" y="351"/>
      <point x="435" y="418"/>
      <point x="388" y="418" type="qcurve"/>
      <point x="339" y="418"/>
      <point x="251" y="365"/>
      <point x="178" y="297" type="qcurve"/>
      <point x="112" y="66" type="line"/>
      <point x="135" y="54"/>
      <point x="190" y="42"/>
      <point x="222" y="42" type="qcurve"/>
      <point x="344" y="42"/>
      <point x="495" y="191"/>
    </contour>
  </outline>
</glyph>
<glyph name="Eogonek" format="2">
  <advance width="614"/>
  <unicode hex="0118"/>
  <outline>
    <contour>
      <point x="241" y="-170" type="qcurve"/>
      <point x="241" y="-136"/>
      <point x="298" y="-64"/>
      <point x="370" y="0" type="qcurve"/>
      <point x="37" y="0" type="line"/>
      <point x="225" y="655" type="line"/>
      <point x="655" y="655" type="line"/>
      <point x="640" y="604" type="line"/>
      <point x="271" y="604" type="line"/>
      <point x="200" y="357" type="line"/>
      <point x="505" y="357" type="line"/>
      <point x="491" y="306" type="line"/>
      <point x="186" y="306" type="line"/>
      <point x="113" y="51" type="line"/>
      <point x="491" y="51" type="line"/>
      <point x="476" y="0" type="line"/>
      <point x="411" y="0" type="line"/>
      <point x="355" y="-57"/>
      <point x="303" y="-131"/>
      <point x="303" y="-158" type="qcurve"/>
      <point x="303" y="-173"/>
      <point x="328" y="-186"/>
      <point x="359" y="-188" type="qcurve"/>
      <point x="424" y="-192" type="line"/>
      <point x="408" y="-235" type="line"/>
      <point x="333" y="-231" type="line"/>
      <point x="283" y="-228"/>
      <point x="241" y="-201"/>
    </contour>
  </outline>
</glyph>
<glyph name="eogonek" format="2">
  <advance width="614"/>
  <unicode hex="0119"/>
  <outline>
    <contour>
      <point x="409" y="44" type="line"/>
      <point x="266" y="44"/>
      <point x="136" y="87"/>
      <point x="136" y="160" type="qcurve"/>
      <point x="136" y="167"/>
      <point x="137" y="181"/>
      <point x="138" y="189" type="qcurve"/>
      <point x="307" y="204" type="line"/>
      <point x="443" y="217"/>
      <point x="567" y="287"/>
      <point x="567" y="358" type="qcurve"/>
      <point x="567" y="411"/>
      <point x="481" y="475"/>
      <point x="408" y="475" type="qcurve"/>
      <point x="344" y="475"/>
      <point x="224" y="427"/>
      <point x="177" y="383" type="qcurve"/>
      <point x="128" y="337"/>
      <point x="74" y="219"/>
      <point x="74" y="158" type="qcurve"/>
      <point x="74" y="110"/>
      <point x="107" y="47"/>
      <point x="146" y="28" type="qcurve"/>
      <point x="183" y="10"/>
      <point x="290" y="-3"/>
      <point x="350" y="-5" type="qcurve"/>
      <point x="256" y="-86"/>
      <point x="216" y="-146"/>
      <point x="216" y="-170" type="qcurve"/>
      <point x="216" y="-201"/>
      <point x="258" y="-228"/>
      <point x="308" y="-231" type="qcurve"/>
      <point x="383" y="-235" type="line"/>
      <point x="399" y="-192" type="line"/>
      <point x="334" y="-188" type="line"/>
      <point x="303" y="-186"/>
      <point x="278" y="-173"/>
      <point x="278" y="-158" type="qcurve"/>
      <point x="278" y="-136"/>
      <point x="332" y="-66"/>
      <point x="393" y="-5" type="qcurve"/>
    </contour>
    <contour>
      <point x="148" y="233" type="line"/>
      <point x="174" y="316"/>
      <point x="321" y="425"/>
      <point x="408" y="425" type="qcurve"/>
      <point x="452" y="425"/>
      <point x="505" y="387"/>
      <point x="505" y="358" type="qcurve"/>
      <point x="505" y="312"/>
      <point x="405" y="258"/>
      <point x="304" y="248" type="qcurve"/>
    </contour>
  </outline>
</glyph>
<glyph name="dotlessi" format="2">
  <advance width="614"/>
  <unicode hex="0131"/>
  <outline>
    <contour>
      <point x="57" y="0" type="line"/>
      <point x="71" y="50" type="line"/>
      <point x="232" y="50" type="line"/>
      <point x="354" y="410" type="line"/>
      <point x="195" y="410" type="line"/>
      <point x="209" y="460" type="line"/>
      <point x="430" y="460" type="line"/>
      <point x="291" y="50" type="line"/>
      <point x="470" y="50" type="line"/>
      <point x="456" y="0" type="line"/>
    </contour>
  </outline>
</glyph>
<glyph name="Lslash" format="2">
  <advance width="614"/>
  <unicode hex="0141"/>
  <outline>
    <contour>
      <point x="140" y="255" type="line"/>
      <point x="37" y="196" type="line"/>
      <point x="55" y="258" type="line"/>
      <point x="158" y="317" type="line"/>
      <point x="255" y="655" type="line"/>
      <point x="316" y="655" type="line"/>
      <point x="228" y="348" type="line"/>
      <point x="478" y="491" type="line"/>
      <point x="460" y="429" type="line"/>
      <point x="210" y="286" type="line"/>
      <point x="142" y="50" type="line"/>
      <point x="487" y="50" type="line"/>
      <point x="473" y="0" type="line"/>
      <point x="67" y="0" type="line"/>
    </contour>
  </outline>
</glyph>
<glyph name="Eng" format="2">
  <advance width="614"/>
  <unicode hex="014A"/>
  <outline>
    <contour>
      <point x="261" y="616" type="line"/>
      <point x="89" y="0" type="line"/>
      <point x="31" y="0" type="line"/>
      <point x="219" y="655" type="line"/>
      <point x="309" y="655" type="line"/>
      <point x="413" y="55" type="line"/>
      <point x="581" y="655" type="line"/>
      <point x="639" y="655" type="line"/>
      <point x="430" y="-74" type="line"/>
      <point x="409" y="-150"/>
      <point x="310" y="-224"/>
      <point x="221" y="-230" type="qcurve"/>
      <point x="89" y="-239" type="line"/>
      <point x="89" y="-188" type="line"/>
      <point x="233" y="-178" type="line"/>
      <point x="296" y="-173"/>
      <point x="361" y="-121"/>
      <point x="380" y="-63" type="qcurve"/>
    </contour>
  </outline>
</glyph>
<glyph name="eng" format="2">
  <advance width="614"/>
  <unicode hex="014B"/>
  <outline>
    <contour>
      <point x="529" y="284" type="qcurve"/>
      <point x="449" y="8" type="line"/>
      <point x="425" y="-76"/>
      <point x="383" y="-157"/>
      <point x="355" y="-180" type="qcurve"/>
      <point x="325" y="-203"/>
      <point x="232" y="-228"/>
      <point x="151" y="-234" type="qcurve"/>
      <point x="83" y="-239" type="line"/>
      <point x="83" y="-188" type="line"/>
      <point x="148" y="-184" type="line"/>
      <point x="210" y="-180"/>
      <point x="288" y="-159"/>
      <point x="313" y="-138" type="qcurve"/>
      <point x="338" y="-119"/>
      <point x="374" y="-51"/>
      <point x="392" y="13" type="qcurve"/>
      <point x="472" y="292" type="line"/>
      <point x="479" y="316"/>
      <point x="485" y="348"/>
      <point x="485" y="360" type="qcurve"/>
      <point x="485" y="385"/>
      <point x="452" y="413"/>
      <point x="422" y="413" type="qcurve"/>
      <point x="376" y="413"/>
      <point x="272" y="334"/>
      <point x="159" y="220" type="qcurve"/>
      <point x="96" y="0" type="line"/>
      <point x="37" y="0" type="line"/>
      <point x="169" y="460" type="line"/>
      <point x="228" y="460" type="line"/>
      <point x="183" y="304" type="line"/>
      <point x="275" y="398"/>
      <point x="377" y="465"/>
      <point x="437" y="465" type="qcurve"/>
      <point x="486" y="465"/>
      <point x="546" y="412"/>
      <point x="546" y="369" type="qcurve"/>
      <point x="546" y="354"/>
      <point x="538" y="313"/>
    </contour>
  </outline>
</glyph>
<glyph name="OE" format="2">
  <advance width="614"/>
  <unicode hex="0152"/>
  <outline>
    <contour>
      <point x="527" y="0" type="line"/>
      <point x="226" y="0" type="line"/>
      <point x="127" y="0"/>
      <point x="29" y="89"/>
      <point x="29" y="179" type="qcurve"/>
      <point x="29" y="276"/>
      <point x="111" y="499"/>
      <point x="169" y="557" type="qcurve"/>
      <point x="223" y="611"/>
      <point x="343" y="655"/>
      <point x="441" y="655" type="qcurve"/>
      <point x="715" y="655" type="line"/>
      <point x="700" y="604" type="line"/>
      <point x="472" y="604" type="line"/>
      <point x="401" y="357" type="line"/>
      <point x="601" y="357" type="line"/>
      <point x="587" y="306" type="line"/>
      <point x="387" y="306" type="line"/>
      <point x="314" y="51" type="line"/>
      <point x="542" y="51" type="line"/>
    </contour>
    <contour>
      <point x="217" y="523" type="qcurve"/>
      <point x="163" y="469"/>
      <point x="92" y="272"/>
      <point x="92" y="185" type="qcurve"/>
      <point x="92" y="116"/>
      <point x="158" y="51"/>
      <point x="228" y="51" type="qcurve"/>
      <point x="252" y="51" type="line"/>
      <point x="411" y="604" type="line"/>
      <point x="352" y="603"/>
      <point x="258" y="564"/>
    </contour>
  </outline>
</glyph>
<glyph name="scedilla" format="2">
  <advance width="614"/>
  <unicode hex="015F"/>
  <outline>
    <contour>
      <point x="480" y="118" type="qcurve"/>
      <point x="480" y="56"/>
      <point x="380" y="-9"/>
      <point x="283" y="-9" type="qcurve"/>
      <point x="276" y="-9"/>
      <point x="263" y="-9"/>
      <point x="256" y="-9" type="qcurve"/>
      <point x="220" y="-66" type="line"/>
      <point x="296" y="-78"/>
      <point x="354" y="-112"/>
      <point x="354" y="-151" type="qcurve"/>
      <point x="354" y="-192"/>
      <point x="298" y="-233"/>
      <point x="233" y="-247" type="qcurve"/>
      <point x="201" y="-253"/>
      <point x="117" y="-265"/>
      <point x="63" y="-270" type="qcurve"/>
      <point x="63" y="-221" type="line"/>
      <point x="102" y="-217"/>
      <point x="164" y="-210"/>
      <point x="188" y="-207" type="qcurve"/>
      <point x="244" y="-198"/>
      <point x="290" y="-177"/>
      <point x="290" y="-155" type="qcurve"/>
      <point x="290" y="-135"/>
      <point x="234" y="-116"/>
      <point x="157" y="-108" type="qcurve"/>
      <point x="154" y="-98" type="line"/>
      <point x="214" y="-6" type="line"/>
      <point x="178" y="-3"/>
      <point x="97" y="12"/>
      <point x="46" y="26" type="qcurve"/>
      <point x="63" y="79" type="line"/>
      <point x="121" y="60"/>
      <point x="231" y="42"/>
      <point x="286" y="42" type="qcurve"/>
      <point x="352" y="42"/>
      <point x="420" y="78"/>
      <point x="420" y="112" type="qcurve"/>
      <point x="420" y="138"/>
      <point x="387" y="171"/>
      <point x="343" y="192" type="qcurve"/>
      <point x="277" y="223" type="line"/>
      <point x="207" y="256"/>
      <point x="151" y="311"/>
      <point x="151" y="352" type="qcurve"/>
      <point x="151" y="409"/>
      <point x="247" y="468"/>
      <point x="340" y="468" type="qcurve"/>
      <point x="384" y="468"/>
      <point x="501" y="450"/>
      <point x="554" y="435" type="qcurve"/>
      <point x="539" y="383" type="line"/>
      <point x="487" y="400"/>
      <point x="386" y="417"/>
      <point x="340" y="417" type="qcurve"/>
      <point x="275" y="417"/>
      <point x="211" y="388"/>
      <point x="211" y="358" type="qcurve"/>
      <point x="211" y="333"/>
      <point x="242" y="303"/>
      <point x="289" y="280" type="qcurve"/>
      <point x="355" y="248" type="line"/>
      <point x="433" y="210"/>
      <point x="480" y="161"/>
    </contour>
  </outline>
</glyph>
<glyph name="Tcedilla" format="2">
  <advance width="614"/>
  <unicode hex="0162"/>
  <outline>
    <contour>
      <point x="381" y="604" type="line"/>
      <point x="160" y="604" type="line"/>
      <point x="175" y="655" type="line"/>
      <point x="677" y="655" type="line"/>
      <point x="662" y="604" type="line"/>
      <point x="442" y="604" type="line"/>
      <point x="269" y="0" type="line"/>
      <point x="261" y="0" type="line"/>
      <point x="223" y="-61" type="line"/>
      <point x="299" y="-73"/>
      <point x="357" y="-107"/>
      <point x="357" y="-146" type="qcurve"/>
      <point x="357" y="-187"/>
      <point x="301" y="-228"/>
      <point x="236" y="-242" type="qcurve"/>
      <point x="204" y="-248"/>
      <point x="120" y="-260"/>
      <point x="66" y="-265" type="qcurve"/>
      <point x="66" y="-216" type="line"/>
      <point x="105" y="-212"/>
      <point x="167" y="-205"/>
      <point x="191" y="-202" type="qcurve"/>
      <point x="247" y="-193"/>
      <point x="293" y="-172"/>
      <point x="293" y="-150" type="qcurve"/>
      <point x="293" y="-130"/>
      <point x="237" y="-111"/>
      <point x="160" y="-103" type="qcurve"/>
      <point x="157" y="-93" type="line"/>
      <point x="217" y="0" type="line"/>
      <point x="208" y="0" type="line"/>
    </contour>
  </outline>
</glyph>
<glyph name="tcedilla" format="2">
  <advance width="614"/>
  <unicode hex="0163"/>
  <outline>
    <contour>
      <point x="175" y="-93" type="line"/>
      <point x="248" y="19" type="line"/>
      <point x="221" y="33"/>
      <point x="193" y="82"/>
      <point x="193" y="116" type="qcurve"/>
      <point x="193" y="135"/>
      <point x="207" y="193"/>
      <point x="221" y="232" type="qcurve"/>
      <point x="286" y="410" type="line"/>
      <point x="116" y="410" type="line"/>
      <point x="130" y="460" type="line"/>
      <point x="305" y="460" type="line"/>
      <point x="370" y="637" type="line"/>
      <point x="429" y="637" type="line"/>
      <point x="364" y="460" type="line"/>
      <point x="565" y="460" type="line"/>
      <point x="551" y="410" type="line"/>
      <point x="346" y="410" type="line"/>
      <point x="276" y="220" type="line"/>
      <point x="264" y="188"/>
      <point x="253" y="139"/>
      <point x="253" y="121" type="qcurve"/>
      <point x="253" y="87"/>
      <point x="296" y="52"/>
      <point x="342" y="50" type="qcurve"/>
      <point x="467" y="43" type="line"/>
      <point x="453" y="-8" type="line"/>
      <point x="348" y="-4" type="line"/>
      <point x="329" y="-3"/>
      <point x="296" y="1"/>
      <point x="282" y="5" type="qcurve"/>
      <point x="241" y="-61" type="line"/>
      <point x="317" y="-73"/>
      <point x="375" y="-107"/>
      <point x="375" y="-146" type="qcurve"/>
      <point x="375" y="-187"/>
      <point x="319" y="-228"/>
      <point x="254" y="-242" type="qcurve"/>
      <point x="222" y="-248"/>
      <point x="138" y="-260"/>
      <point x="84" y="-265" type="qcurve"/>
      <point x="84" y="-216" type="line"/>
      <point x="123" y="-212"/>
      <point x="185" y="-205"/>
      <point x="209" y="-202" type="qcurve"/>
      <point x="265" y="-193"/>
      <point x="311" y="-172"/>
      <point x="311" y="-150" type="qcurve"/>
      <point x="311" y="-130"/>
      <point x="255" y="-111"/>
      <point x="178" y="-103" type="qcurve"/>
    </contour>
  </outline>
</glyph>
<glyph name="Tbar" format="2">
  <advance width="614"/>
  <unicode hex="0166"/>
  <outline>
    <contour>
      <point x="296" y="309" type="line"/>
      <point x="145" y="309" type="line"/>
      <point x="157" y="353" type="line"/>
      <point x="309" y="353" type="line"/>
      <point x="381" y="604" type="line"/>
      <point x="160" y="604" type="line"/>
      <point x="175" y="655" type="line"/>
      <point x="677" y="655" type="line"/>
      <point x="662" y="604" type="line"/>
      <point x="442" y="604" type="line"/>
      <point x="370" y="353" type="line"/>
      <point x="522" y="353" type="line"/>
      <point x="510" y="309" type="line"/>
      <point x="357" y="309" type="line"/>
      <point x="269" y="0" type="line"/>
      <point x="208" y="0" type="line"/>
    </contour>
  </outline>
</glyph>
<glyph name="tbar" format="2">
  <advance width="614"/>
  <unicode hex="0167"/>
  <outline>
    <contour>
      <point x="217" y="222" type="qcurve"/>
      <point x="101" y="222" type="line"/>
      <point x="114" y="270" type="line"/>
      <point x="235" y="270" type="line"/>
      <point x="286" y="410" type="line"/>
      <point x="116" y="410" type="line"/>
      <point x="130" y="460" type="line"/>
      <point x="305" y="460" type="line"/>
      <point x="370" y="637" type="line"/>
      <point x="429" y="637" type="line"/>
      <point x="364" y="460" type="line"/>
      <point x="565" y="460" type="line"/>
      <point x="551" y="410" type="line"/>
      <point x="346" y="410" type="line"/>
      <point x="294" y="270" type="line"/>
      <point x="472" y="270" type="line"/>
      <point x="459" y="222" type="line"/>
      <point x="277" y="222" type="line"/>
      <point x="265" y="188"/>
      <point x="253" y="137"/>
      <point x="253" y="121" type="qcurve"/>
      <point x="253" y="87"/>
      <point x="296" y="52"/>
      <point x="342" y="50" type="qcurve"/>
      <point x="467" y="43" type="line"/>
      <point x="453" y="-8" type="line"/>
      <point x="348" y="-4" type="line"/>
      <point x="270" y="-1"/>
      <point x="193" y="59"/>
      <point x="193" y="116" type="qcurve"/>
      <point x="193" y="135"/>
      <point x="205" y="188"/>
    </contour>
  </outline>
</glyph>
<glyph name="Uogonek" format="2">
  <advance width="614"/>
  <unicode hex="0172"/>
  <outline>
    <contour>
      <point x="108" y="-175" type="qcurve"/>
      <point x="108" y="-143"/>
      <point x="161" y="-74"/>
      <point x="228" y="-13" type="qcurve"/>
      <point x="153" y="-3"/>
      <point x="74" y="86"/>
      <point x="74" y="162" type="qcurve"/>
      <point x="74" y="185"/>
      <point x="84" y="240"/>
      <point x="96" y="281" type="qcurve"/>
      <point x="204" y="655" type="line"/>
      <point x="265" y="655" type="line"/>
      <point x="155" y="273" type="line"/>
      <point x="144" y="233"/>
      <point x="133" y="178"/>
      <point x="133" y="159" type="qcurve"/>
      <point x="133" y="100"/>
      <point x="206" y="36"/>
      <point x="275" y="36" type="qcurve"/>
      <point x="347" y="36"/>
      <point x="440" y="122"/>
      <point x="466" y="211" type="qcurve"/>
      <point x="594" y="655" type="line"/>
      <point x="654" y="655" type="line"/>
      <point x="524" y="205" type="line"/>
      <point x="491" y="90"/>
      <point x="369" y="-15"/>
      <point x="268" y="-15" type="qcurve"/>
      <point x="218" y="-68"/>
      <point x="170" y="-137"/>
      <point x="170" y="-163" type="qcurve"/>
      <point x="170" y="-178"/>
      <point x="195" y="-191"/>
      <point x="226" y="-193" type="qcurve"/>
      <point x="291" y="-197" type="line"/>
      <point x="275" y="-240" type="line"/>
      <point x="200" y="-236" type="line"/>
      <point x="150" y="-233"/>
      <point x="108" y="-206"/>
    </contour>
  </outline>
</glyph>
<glyph name="uogonek" format="2">
  <advance width="614"/>
  <unicode hex="0173"/>
  <outline>
    <contour>
      <point x="266" y="-170" type="qcurve"/>
      <point x="266" y="-136"/>
      <point x="323" y="-64"/>
      <point x="395" y="0" type="qcurve"/>
      <point x="386" y="0" type="line"/>
      <point x="431" y="156" type="line"/>
      <point x="339" y="62"/>
      <point x="237" y="-5"/>
      <point x="177" y="-5" type="qcurve"/>
      <point x="128" y="-5"/>
      <point x="68" y="48"/>
      <point x="68" y="91" type="qcurve"/>
      <point x="68" y="103"/>
      <point x="76" y="144"/>
      <point x="85" y="176" type="qcurve"/>
      <point x="167" y="460" type="line"/>
      <point x="226" y="460" type="line"/>
      <point x="142" y="168" type="line"/>
      <point x="135" y="144"/>
      <point x="129" y="112"/>
      <point x="129" y="100" type="qcurve"/>
      <point x="129" y="75"/>
      <point x="162" y="47"/>
      <point x="192" y="47" type="qcurve"/>
      <point x="238" y="47"/>
      <point x="342" y="126"/>
      <point x="455" y="240" type="qcurve"/>
      <point x="518" y="460" type="line"/>
      <point x="577" y="460" type="line"/>
      <point x="445" y="0" type="line"/>
      <point x="436" y="0" type="line"/>
      <point x="380" y="-57"/>
      <point x="328" y="-131"/>
      <point x="328" y="-158" type="qcurve"/>
      <point x="328" y="-173"/>
      <point x="353" y="-186"/>
      <point x="384" y="-188" type="qcurve"/>
      <point x="449" y="-192" type="line"/>
      <point x="433" y="-235" type="line"/>
      <point x="358" y="-231" type="line"/>
      <point x="308" y="-228"/>
      <point x="266" y="-201"/>
    </contour>
  </outline>
</glyph>
<glyph name="Schwa" format="2">
  <advance width="614"/>
  <unicode hex="018F"/>
  <outline>
    <contour>
      <point x="599" y="480" type="qcurve"/>
      <point x="599" y="443"/>
      <point x="584" y="355"/>
      <point x="569" y="302" type="qcurve"/>
      <point x="523" y="143"/>
      <point x="362" y="-15"/>
      <point x="243" y="-15" type="qcurve"/>
      <point x="156" y="-15"/>
      <point x="64" y="68"/>
      <point x="64" y="147" type="qcurve"/>
      <point x="64" y="194"/>
      <point x="87" y="306"/>
      <point x="110" y="369" type="qcurve"/>
      <point x="522" y="369" type="line"/>
      <point x="529" y="403"/>
      <point x="537" y="459"/>
      <point x="537" y="482" type="qcurve"/>
      <point x="537" y="551"/>
      <point x="465" y="613"/>
      <point x="380" y="613" type="qcurve"/>
      <point x="353" y="613"/>
      <point x="287" y="605"/>
      <point x="254" y="598" type="qcurve"/>
      <point x="277" y="653" type="line"/>
      <point x="307" y="659"/>
      <point x="356" y="664"/>
      <point x="383" y="664" type="qcurve"/>
      <point x="494" y="664"/>
      <point x="599" y="574"/>
    </contour>
    <contour>
      <point x="126" y="154" type="qcurve"/>
      <point x="126" y="93"/>
      <point x="182" y="36"/>
      <point x="243" y="36" type="qcurve"/>
      <point x="339" y="36"/>
      <point x="464" y="171"/>
      <point x="508" y="318" type="qcurve"/>
      <point x="154" y="318" type="line"/>
      <point x="140" y="274"/>
      <point x="126" y="191"/>
    </contour>
  </outline>
</glyph>
<glyph name="Ohorn" format="2">
  <advance width="614"/>
  <unicode hex="01A0"/>
  <outline>
    <contour>
      <point x="84" y="359" type="qcurve"/>
      <point x="122" y="490"/>
      <point x="299" y="655"/>
      <point x="407" y="655" type="qcurve"/>
      <point x="521" y="655" type="line"/>
      <point x="600" y="655"/>
      <point x="663" y="698"/>
      <point x="686" y="768" type="qcurve"/>
      <point x="746" y="768" type="line"/>
      <point x="722" y="679"/>
      <point x="638" y="616"/>
      <point x="532" y="616" type="qcurve"/>
      <point x="530" y="616"/>
      <point x="524" y="616"/>
      <point x="522" y="616" type="qcurve"/>
      <point x="520" y="614" type="line"/>
      <point x="565" y="588"/>
      <point x="606" y="505"/>
      <point x="606" y="442" type="qcurve"/>
      <point x="606" y="404"/>
      <point x="594" y="320"/>
      <point x="583" y="282" type="qcurve"/>
      <point x="545" y="151"/>
      <point x="367" y="-15"/>
      <point x="260" y="-15" type="qcurve"/>
      <point x="165" y="-15"/>
      <point x="61" y="96"/>
      <point x="61" y="199" type="qcurve"/>
      <point x="61" y="237"/>
      <point x="73" y="321"/>
    </contour>
    <contour>
      <point x="124" y="196" type="qcurve"/>
      <point x="124" y="119"/>
      <point x="196" y="36"/>
      <point x="263" y="36" type="qcurve"/>
      <point x="348" y="36"/>
      <point x="487" y="173"/>
      <point x="519" y="283" type="qcurve"/>
      <point x="531" y="323"/>
      <point x="543" y="408"/>
      <point x="543" y="445" type="qcurve"/>
      <point x="543" y="522"/>
      <point x="471" y="604"/>
      <point x="404" y="604" type="qcurve"/>
      <point x="319" y="604"/>
      <point x="180" y="468"/>
      <point x="148" y="358" type="qcurve"/>
      <point x="136" y="318"/>
      <point x="124" y="233"/>
    </contour>
  </outline>
</glyph>
<glyph name="Uhorn" format="2">
  <advance width="614"/>
  <unicode hex="01AF"/>
  <outline>
    <contour>
      <point x="275" y="36" type="qcurve"/>
      <point x="347" y="36"/>
      <point x="440" y="122"/>
      <point x="466" y="211" type="qcurve"/>
      <point x="594" y="655" type="line"/>
      <point x="631" y="655" type="line"/>
      <point x="700" y="655"/>
      <point x="752" y="695"/>
      <point x="776" y="768" type="qcurve"/>
      <point x="836" y="768" type="line"/>
      <point x="811" y="679"/>
      <point x="730" y="610"/>
      <point x="641" y="610" type="qcurve"/>
      <point x="524" y="205" type="line"/>
      <point x="491" y="90"/>
      <point x="368" y="-15"/>
      <point x="267" y="-15" type="qcurve"/>
      <point x="174" y="-15"/>
      <point x="74" y="76"/>
      <point x="74" y="162" type="qcurve"/>
      <point x="74" y="185"/>
      <point x="84" y="240"/>
      <point x="96" y="281" type="qcurve"/>
      <point x="204" y="655" type="line"/>
      <point x="265" y="655" type="line"/>
      <point x="155" y="273" type="line"/>
      <point x="144" y="233"/>
      <point x="133" y="178"/>
      <point x="133" y="159" type="qcurve"/>
      <point x="133" y="100"/>
      <point x="206" y="36"/>
    </contour>
  </outline>
</glyph>
<glyph name="oogonek" format="2">
  <advance width="614"/>
  <unicode hex="01EB"/>
  <outline>
    <contour>
      <point x="97" y="-175" type="qcurve"/>
      <point x="97" y="-143"/>
      <point x="150" y="-73"/>
      <point x="218" y="-12" type="qcurve"/>
      <point x="145" y="0"/>
      <point x="58" y="109"/>
      <point x="58" y="187" type="qcurve"/>
      <point x="58" y="243"/>
      <point x="105" y="351"/>
      <point x="147" y="392" type="qcurve"/>
      <point x="189" y="432"/>
      <point x="296" y="475"/>
      <point x="356" y="475" type="qcurve"/>
      <point x="446" y="475"/>
      <point x="556" y="362"/>
      <point x="556" y="273" type="qcurve"/>
      <point x="556" y="217"/>
      <point x="509" y="109"/>
      <point x="466" y="68" type="qcurve"/>
      <point x="425" y="28"/>
      <point x="317" y="-15"/>
      <point x="257" y="-15" type="qcurve"/>
      <point x="207" y="-68"/>
      <point x="159" y="-137"/>
      <point x="159" y="-163" type="qcurve"/>
      <point x="159" y="-178"/>
      <point x="184" y="-191"/>
      <point x="215" y="-193" type="qcurve"/>
      <point x="280" y="-197" type="line"/>
      <point x="264" y="-240" type="line"/>
      <point x="189" y="-236" type="line"/>
      <point x="139" y="-233"/>
      <point x="97" y="-206"/>
    </contour>
    <contour>
      <point x="118" y="185" type="qcurve"/>
      <point x="118" y="119"/>
      <point x="200" y="34"/>
      <point x="263" y="34" type="qcurve"/>
      <point x="356" y="34"/>
      <point x="496" y="179"/>
      <point x="496" y="275" type="qcurve"/>
      <point x="496" y="341"/>
      <point x="414" y="426"/>
      <point x="351" y="426" type="qcurve"/>
      <point x="258" y="426"/>
      <point x="118" y="281"/>
    </contour>
  </outline>
</glyph>
<glyph name="schwa" format="2">
  <advance width="614"/>
  <unicode hex="0259"/>
  <outline>
    <contour>
      <point x="202" y="416" type="qcurve"/>
      <point x="218" y="465" type="line"/>
      <point x="306" y="465"/>
      <point x="428" y="450"/>
      <point x="465" y="432" type="qcurve"/>
      <point x="504" y="413"/>
      <point x="537" y="350"/>
      <point x="537" y="302" type="qcurve"/>
      <point x="537" y="241"/>
      <point x="483" y="123"/>
      <point x="434" y="77" type="qcurve"/>
      <point x="387" y="33"/>
      <point x="267" y="-15"/>
      <point x="203" y="-15" type="qcurve"/>
      <point x="130" y="-15"/>
      <point x="44" y="49"/>
      <point x="44" y="102" type="qcurve"/>
      <point x="44" y="173"/>
      <point x="168" y="243"/>
      <point x="304" y="256" type="qcurve"/>
      <point x="473" y="271" type="line"/>
      <point x="474" y="279"/>
      <point x="475" y="293"/>
      <point x="475" y="300" type="qcurve"/>
      <point x="475" y="373"/>
      <point x="345" y="416"/>
    </contour>
    <contour>
      <point x="106" y="102" type="qcurve"/>
      <point x="106" y="73"/>
      <point x="159" y="35"/>
      <point x="203" y="35" type="qcurve"/>
      <point x="290" y="35"/>
      <point x="437" y="144"/>
      <point x="463" y="227" type="qcurve"/>
      <point x="307" y="212" type="line"/>
      <point x="206" y="202"/>
      <point x="106" y="148"/>
    </contour>
  </outline>
</glyph>
<glyph name="ringhalfright" format="2">
  <advance width="614"/>
  <unicode hex="02BE"/>
  <outline>
    <contour>
      <point x="449" y="395" type="qcurve"/>
      <point x="406" y="352"/>
      <point x="279" y="315"/>
      <point x="178" y="315" type="qcurve"/>
      <point x="196" y="377" type="line"/>
      <point x="317" y="377"/>
      <point x="434" y="469"/>
      <point x="434" y="565" type="qcurve"/>
      <point x="434" y="614"/>
      <point x="356" y="663"/>
      <point x="278" y="663" type="qcurve"/>
      <point x="296" y="725" type="line"/>
      <point x="404" y="725"/>
      <point x="512" y="642"/>
      <point x="512" y="560" type="qcurve"/>
      <point x="512" y="510"/>
      <point x="480" y="426"/>
    </contour>
  </outline>
</glyph>
<glyph name="acutecmb" format="2">
  <unicode hex="0301"/>
  <outline>
    <contour>
      <point x="34" y="536" type="line"/>
      <point x="10" y="570" type="line"/>
      <point x="259" y="741" type="line"/>
      <point x="290" y="695" type="line"/>
    </contour>
  </outline>
</glyph>
<glyph name="macroncmb" format="2">
  <unicode hex="0304"/>
  <outline>
    <contour>
      <point x="263" y="576" type="line"/>
      <point x="-65" y="576" type="line"/>
      <point x="-50" y="626" type="line"/>
      <point x="278" y="626" type="line"/>
    </contour>
  </outline>
</glyph>
<glyph name="brevecmb" format="2">
  <unicode hex="0306"/>
  <outline>
    <contour>
      <point x="102" y="586" type="qcurve"/>
      <point x="149" y="586"/>
      <point x="231" y="652"/>
      <point x="280" y="730" type="qcurve"/>
      <point x="324" y="716" type="line"/>
      <point x="268" y="617"/>
      <point x="166" y="536"/>
      <point x="97" y="536" type="qcurve"/>
      <point x="26" y="536"/>
      <point x="-35" y="621"/>
      <point x="-35" y="720" type="qcurve"/>
      <point x="6" y="730" type="line"/>
      <point x="11" y="652"/>
      <point x="55" y="586"/>
    </contour>
  </outline>
</glyph>
<glyph name="dotaccentcmb" format="2">
  <unicode hex="0307"/>
  <outline>
    <contour>
      <point x="165" y="623" type="qcurve"/>
      <point x="165" y="593"/>
      <point x="128" y="556"/>
      <point x="98" y="556" type="qcurve"/>
      <point x="76" y="556"/>
      <point x="51" y="575"/>
      <point x="51" y="592" type="qcurve"/>
      <point x="51" y="619"/>
      <point x="90" y="659"/>
      <point x="118" y="659" type="qcurve"/>
      <point x="141" y="659"/>
      <point x="165" y="641"/>
    </contour>
  </outline>
</glyph>
<glyph name="hookcmb" format="2">
  <unicode hex="0309"/>
  <outline>
    <contour>
      <point x="224" y="662" type="qcurve"/>
      <point x="224" y="608"/>
      <point x="109" y="544"/>
      <point x="-3" y="536" type="qcurve"/>
      <point x="-7" y="574" type="line"/>
      <point x="-6" y="575" type="line"/>
      <point x="79" y="584"/>
      <point x="165" y="626"/>
      <point x="165" y="658" type="qcurve"/>
      <point x="165" y="678"/>
      <point x="103" y="705"/>
      <point x="35" y="717" type="qcurve"/>
      <point x="35" y="720" type="line"/>
      <point x="76" y="751" type="line"/>
      <point x="153" y="738"/>
      <point x="224" y="696"/>
    </contour>
  </outline>
</glyph>
<glyph name="hungarumlautcmb" format="2">
  <unicode hex="030B"/>
  <outline>
    <contour>
      <point x="-31" y="536" type="line"/>
      <point x="-59" y="560" type="line"/>
      <point x="79" y="735" type="line"/>
      <point x="127" y="701" type="line"/>
    </contour>
    <contour>
      <point x="187" y="536" type="line"/>
      <point x="158" y="560" type="line"/>
      <point x="296" y="735" type="line"/>
      <point x="344" y="701" type="line"/>
    </contour>
  </outline>
</glyph>
<glyph name="commaturnedabovecmb" format="2">
  <unicode hex="0312"/>
  <outline>
    <contour>
      <point x="8" y="625" type="qcurve"/>
      <point x="8" y="679"/>
      <point x="123" y="743"/>
      <point x="235" y="751" type="qcurve"/>
      <point x="239" y="713" type="line"/>
      <point x="238" y="712" type="line"/>
      <point x="153" y="703"/>
      <point x="67" y="661"/>
      <point x="67" y="629" type="qcurve"/>
      <point x="67" y="609"/>
      <point x="129" y="582"/>
      <point x="197" y="570" type="qcurve"/>
      <point x="197" y="567" type="line"/>
      <point x="156" y="536" type="line"/>
      <point x="79" y="549"/>
      <point x="8" y="591"/>
    </contour>
  </outline>
</glyph>
<glyph name="dotbelowcmb" format="2">
  <unicode hex="0323"/>
  <outline>
    <contour>
      <point x="-51" y="-131" type="qcurve"/>
      <point x="-51" y="-161"/>
      <point x="-88" y="-198"/>
      <point x="-118" y="-198" type="qcurve"/>
      <point x="-140" y="-198"/>
      <point x="-165" y="-179"/>
      <point x="-165" y="-162" type="qcurve"/>
      <point x="-165" y="-135"/>
      <point x="-126" y="-95"/>
      <point x="-98" y="-95" type="qcurve"/>
      <point x="-75" y="-95"/>
      <point x="-51" y="-113"/>
    </contour>
  </outline>
</glyph>
<glyph name="uni0326" format="2">
  <unicode hex="0326"/>
  <outline>
    <contour>
      <point x="-12" y="-164" type="qcurve"/>
      <point x="-12" y="-218"/>
      <point x="-127" y="-282"/>
      <point x="-239" y="-290" type="qcurve"/>
      <point x="-243" y="-252" type="line"/>
      <point x="-242" y="-251" type="line"/>
      <point x="-157" y="-242"/>
      <point x="-71" y="-200"/>
      <point x="-71" y="-168" type="qcurve"/>
      <point x="-71" y="-148"/>
      <point x="-133" y="-121"/>
      <point x="-201" y="-109" type="qcurve"/>
      <point x="-201" y="-106" type="line"/>
      <point x="-160" y="-75" type="line"/>
      <point x="-83" y="-88"/>
      <point x="-12" y="-130"/>
    </contour>
  </outline>
</glyph>
<glyph name="cedillacmb" format="2">
  <unicode hex="0327"/>
  <outline>
    <contour>
      <point x="-148" y="-93" type="line"/>
      <point x="-74" y="21" type="line"/>
      <point x="-31" y="21" type="line"/>
      <point x="-82" y="-61" type="line"/>
      <point x="-6" y="-73"/>
      <point x="52" y="-107"/>
      <point x="52" y="-146" type="qcurve"/>
      <point x="52" y="-187"/>
      <point x="-4" y="-228"/>
      <point x="-69" y="-242" type="qcurve"/>
      <point x="-101" y="-248"/>
      <point x="-185" y="-260"/>
      <point x="-239" y="-265" type="qcurve"/>
      <point x="-239" y="-216" type="line"/>
      <point x="-200" y="-212"/>
      <point x="-138" y="-205"/>
      <point x="-114" y="-202" type="qcurve"/>
      <point x="-58" y="-193"/>
      <point x="-12" y="-172"/>
      <point x="-12" y="-150" type="qcurve"/>
      <point x="-12" y="-130"/>
      <point x="-68" y="-111"/>
      <point x="-145" y="-103" type="qcurve"/>
    </contour>
  </outline>
</glyph>
<glyph name="ogonekcmb" format="2">
  <unicode hex="0328"/>
  <outline>
    <contour>
      <point x="-217" y="-170" type="qcurve"/>
      <point x="-217" y="-134"/>
      <point x="-149" y="-52"/>
      <point x="-59" y="26" type="qcurve"/>
      <point x="-35" y="12" type="line"/>
      <point x="-97" y="-50"/>
      <point x="-155" y="-130"/>
      <point x="-155" y="-158" type="qcurve"/>
      <point x="-155" y="-173"/>
      <point x="-130" y="-186"/>
      <point x="-99" y="-188" type="qcurve"/>
      <point x="-34" y="-192" type="line"/>
      <point x="-50" y="-235" type="line"/>
      <point x="-125" y="-231" type="line"/>
      <point x="-175" y="-228"/>
      <point x="-217" y="-201"/>
    </contour>
  </outline>
</glyph>
<glyph name="circumflexbelowcmb" format="2">
  <unicode hex="032D"/>
  <outline>
    <contour>
      <point x="-79" y="-75" type="line"/>
      <point x="38" y="-258" type="line"/>
      <point x="3" y="-280" type="line"/>
      <point x="-109" y="-134" type="line"/>
      <point x="-303" y="-280" type="line"/>
      <point x="-327" y="-249" type="line"/>
      <point x="-115" y="-75" type="line"/>
    </contour>
  </outline>
</glyph>
<glyph name="brevebelowcmb" format="2">
  <unicode hex="032E"/>
  <outline>
    <contour>
      <point x="-131" y="-220" type="qcurve"/>
      <point x="-84" y="-220"/>
      <point x="-2" y="-154"/>
      <point x="47" y="-76" type="qcurve"/>
      <point x="91" y="-90" type="line"/>
      <point x="35" y="-189"/>
      <point x="-67" y="-270"/>
      <point x="-136" y="-270" type="qcurve"/>
      <point x="-207" y="-270"/>
      <point x="-268" y="-185"/>
      <point x="-268" y="-86" type="qcurve"/>
      <point x="-227" y="-76" type="line"/>
      <point x="-222" y="-154"/>
      <point x="-178" y="-220"/>
    </contour>
  </outline>
</glyph>
<glyph name="macronbelowcmb" format="2">
  <unicode hex="0331"/>
  <outline>
    <contour>
      <point x="48" y="-166" type="line"/>
      <point x="-280" y="-166" type="line"/>
      <point x="-265" y="-116" type="line"/>
      <point x="63" y="-116" type="line"/>
    </contour>
  </outline>
</glyph>
<glyph name="bahtthai" format="2">
  <advance width="614"/>
  <unicode hex="0E3F"/>
  <outline>
    <contour>
      <point x="277" y="0" type="line"/>
      <point x="236" y="-142" type="line"/>
      <point x="179" y="-142" type="line"/>
      <point x="220" y="0" type="line"/>
      <point x="37" y="0" type="line"/>
      <point x="225" y="655" type="line"/>
      <point x="408" y="655" type="line"/>
      <point x="449" y="797" type="line"/>
      <point x="506" y="797" type="line"/>
      <point x="465" y="654" type="line"/>
      <point x="538" y="650"/>
      <point x="617" y="585"/>
      <point x="617" y="529" type="qcurve"/>
      <point x="617" y="457"/>
      <point x="514" y="360"/>
      <point x="413" y="338" type="qcurve"/>
      <point x="413" y="334" type="line"/>
      <point x="479" y="321"/>
      <point x="548" y="249"/>
      <point x="548" y="194" type="qcurve"/>
      <point x="548" y="106"/>
      <point x="405" y="0"/>
      <point x="281" y="0" type="qcurve"/>
    </contour>
    <contour>
      <point x="199" y="359" type="line"/>
      <point x="317" y="364" type="line"/>
      <point x="323" y="364"/>
      <point x="328" y="364"/>
      <point x="331" y="365" type="qcurve"/>
      <point x="400" y="606" type="line"/>
      <point x="270" y="606" type="line"/>
    </contour>
    <contour>
      <point x="551" y="519" type="qcurve"/>
      <point x="551" y="560"/>
      <point x="497" y="604"/>
      <point x="445" y="606" type="qcurve"/>
      <point x="378" y="371" type="line"/>
      <point x="458" y="385"/>
      <point x="551" y="467"/>
    </contour>
    <contour>
      <point x="240" y="49" type="line"/>
      <point x="315" y="310" type="line"/>
      <point x="186" y="314" type="line"/>
      <point x="110" y="49" type="line"/>
    </contour>
    <contour>
      <point x="485" y="198" type="qcurve"/>
      <point x="485" y="242"/>
      <point x="419" y="299"/>
      <point x="359" y="307" type="qcurve"/>
      <point x="285" y="49" type="line"/>
      <point x="297" y="49" type="line"/>
      <point x="380" y="49"/>
      <point x="485" y="135"/>
    </contour>
  </outline>
</glyph>
<glyph name="Hcedilla" format="2">
  <advance width="614"/>
  <unicode hex="1E28"/>
  <outline>
    <contour>
      <point x="34" y="0" type="line"/>
      <point x="222" y="655" type="line"/>
      <point x="283" y="655" type="line"/>
      <point x="197" y="356" type="line"/>
      <point x="489" y="356" type="line"/>
      <point x="575" y="655" type="line"/>
      <point x="636" y="655" type="line"/>
      <point x="448" y="0" type="line"/>
      <point x="387" y="0" type="line"/>
      <point x="475" y="305" type="line"/>
      <point x="183" y="305" type="line"/>
      <point x="95" y="0" type="line"/>
      <point x="87" y="0" type="line"/>
      <point x="49" y="-61" type="line"/>
      <point x="125" y="-73"/>
      <point x="183" y="-107"/>
      <point x="183" y="-146" type="qcurve"/>
      <point x="183" y="-187"/>
      <point x="127" y="-228"/>
      <point x="62" y="-242" type="qcurve"/>
      <point x="30" y="-248"/>
      <point x="-54" y="-260"/>
      <point x="-108" y="-265" type="qcurve"/>
      <point x="-108" y="-216" type="line"/>
      <point x="-69" y="-212"/>
      <point x="-7" y="-205"/>
      <point x="17" y="-202" type="qcurve"/>
      <point x="73" y="-193"/>
      <point x="119" y="-172"/>
      <point x="119" y="-150" type="qcurve"/>
      <point x="119" y="-130"/>
      <point x="63" y="-111"/>
      <point x="-14" y="-103" type="qcurve"/>
      <point x="-17" y="-93" type="line"/>
      <point x="43" y="0" type="line"/>
    </contour>
  </outline>
</glyph>
<glyph name="endash" format="2">
  <advance width="614"/>
  <unicode hex="2013"/>
  <outline>
    <contour>
      <point x="87" y="254" type="line"/>
      <point x="103" y="309" type="line"/>
      <point x="557" y="309" type="line"/>
      <point x="541" y="254" type="line"/>
    </contour>
  </outline>
</glyph>
<glyph name="quoteleft" format="2">
  <advance width="614"/>
  <unicode hex="2018"/>
  <outline>
    <contour>
      <point x="497" y="710" type="qcurve"/>
      <point x="560" y="710" type="line"/>
      <point x="559" y="708" type="line"/>
      <point x="480" y="634"/>
      <point x="404" y="524"/>
      <point x="385" y="456" type="qcurve"/>
      <point x="289" y="456" type="line"/>
      <point x="312" y="538"/>
      <point x="398" y="643"/>
    </contour>
  </outline>
</glyph>
<glyph name="quotedblright" format="2">
  <advance width="614"/>
  <unicode hex="201D"/>
  <outline>
    <contour>
      <point x="441" y="446" type="qcurve"/>
      <point x="378" y="446" type="line"/>
      <point x="378" y="448" type="line"/>
      <point x="464" y="538"/>
      <point x="521" y="622"/>
      <point x="554" y="710" type="qcurve"/>
      <point x="654" y="710" type="line"/>
      <point x="616" y="612"/>
      <point x="545" y="524"/>
    </contour>
    <contour>
      <point x="196" y="446" type="qcurve"/>
      <point x="133" y="446" type="line"/>
      <point x="133" y="448" type="line"/>
      <point x="219" y="538"/>
      <point x="276" y="622"/>
      <point x="309" y="710" type="qcurve"/>
      <point x="409" y="710" type="line"/>
      <point x="371" y="612"/>
      <point x="300" y="524"/>
    </contour>
  </outline>
</glyph>
<glyph name="guilsinglleft" format="2">
  <advance width="614"/>
  <unicode hex="2039"/>
  <outline>
    <contour>
      <point x="215" y="225" type="line"/>
      <point x="382" y="41" type="line"/>
      <point x="364" y="-15" type="line"/>
      <point x="151" y="203" type="line"/>
      <point x="165" y="254" type="line"/>
      <point x="504" y="471" type="line"/>
      <point x="485" y="402" type="line"/>
    </contour>
  </outline>
</glyph>
<glyph name="guilsinglright" format="2">
  <advance width="614"/>
  <unicode hex="203A"/>
  <outline>
    <contour>
      <point x="463" y="253" type="line"/>
      <point x="449" y="202" type="line"/>
      <point x="110" y="-15" type="line"/>
      <point x="129" y="54" type="line"/>
      <point x="399" y="231" type="line"/>
      <point x="232" y="415" type="line"/>
      <point x="250" y="471" type="line"/>
    </contour>
  </outline>
</glyph>
<glyph name="won" format="2">
  <advance width="614"/>
  <unicode hex="20A9"/>
  <outline>
    <contour>
      <point x="376" y="455" type="line"/>
      <point x="365" y="455" type="line"/>
      <point x="154" y="0" type="line"/>
      <point x="65" y="0" type="line"/>
      <point x="126" y="306" type="line"/>
      <point x="36" y="306" type="line"/>
      <point x="50" y="356" type="line"/>
      <point x="136" y="356" type="line"/>
      <point x="195" y="655" type="line"/>
      <point x="236" y="655" type="line"/>
      <point x="175" y="352" type="line"/>
      <point x="274" y="352" type="line"/>
      <point x="336" y="485" type="line"/>
      <point x="420" y="485" type="line"/>
      <point x="406" y="352" type="line"/>
      <point x="506" y="352" type="line"/>
      <point x="619" y="655" type="line"/>
      <point x="663" y="655" type="line"/>
      <point x="550" y="356" type="line"/>
      <point x="636" y="356" type="line"/>
      <point x="622" y="306" type="line"/>
      <point x="531" y="306" type="line"/>
      <point x="416" y="0" type="line"/>
      <point x="328" y="0" type="line"/>
    </contour>
    <contour>
      <point x="372" y="32" type="line"/>
      <point x="386" y="32" type="line"/>
      <point x="490" y="310" type="line"/>
      <point x="401" y="310" type="line"/>
    </contour>
    <contour>
      <point x="166" y="310" type="line"/>
      <point x="110" y="32" type="line"/>
      <point x="124" y="32" type="line"/>
      <point x="254" y="310" type="line"/>
    </contour>
  </outline>
</glyph>
<glyph name="dong" format="2">
  <advance width="614"/>
  <unicode hex="20AB"/>
  <outline>
    <contour>
      <point x="448" y="0" type="line"/>
      <point x="399" y="0" type="line"/>
      <point x="417" y="95" type="line"/>
      <point x="362" y="40"/>
      <point x="268" y="-8"/>
      <point x="217" y="-8" type="qcurve"/>
      <point x="141" y="-8"/>
      <point x="54" y="75"/>
      <point x="54" y="148" type="qcurve"/>
      <point x="54" y="269"/>
      <point x="234" y="428"/>
      <point x="378" y="428" type="qcurve"/>
      <point x="411" y="428"/>
      <point x="474" y="416"/>
      <point x="505" y="404" type="qcurve"/>
      <point x="536" y="513" type="line"/>
      <point x="336" y="513" type="line"/>
      <point x="350" y="561" type="line"/>
      <point x="550" y="561" type="line"/>
      <point x="577" y="655" type="line"/>
      <point x="636" y="655" type="line"/>
      <point x="609" y="561" type="line"/>
      <point x="695" y="561" type="line"/>
      <point x="681" y="513" type="line"/>
      <point x="595" y="513" type="line"/>
    </contour>
    <contour>
      <point x="377" y="378" type="qcurve"/>
      <point x="260" y="378"/>
      <point x="116" y="245"/>
      <point x="116" y="151" type="qcurve"/>
      <point x="116" y="102"/>
      <point x="175" y="42"/>
      <point x="223" y="42" type="qcurve"/>
      <point x="273" y="42"/>
      <point x="363" y="95"/>
      <point x="436" y="163" type="qcurve"/>
      <point x="491" y="354" type="line"/>
      <point x="467" y="366"/>
      <point x="410" y="378"/>
    </contour>
    <contour>
      <point x="399" y="-136" type="line"/>
      <point x="-9" y="-136" type="line"/>
      <point x="5" y="-88" type="line"/>
      <point x="413" y="-88" type="line"/>
    </contour>
  </outline>
</glyph>
<glyph name="uni20B9" format="2">
  <advance width="614"/>
  <unicode hex="20B9"/>
  <outline>
    <contour>
      <point x="431" y="410" type="qcurve"/>
      <point x="122" y="410" type="line"/>
      <point x="135" y="458" type="line"/>
      <point x="445" y="458" type="line"/>
      <point x="488" y="607" type="line"/>
      <point x="178" y="607" type="line"/>
      <point x="192" y="655" type="line"/>
      <point x="672" y="655" type="line"/>
      <point x="658" y="607" type="line"/>
      <point x="551" y="607" type="line"/>
      <point x="508" y="458" type="line"/>
      <point x="615" y="458" type="line"/>
      <point x="602" y="410" type="line"/>
      <point x="494" y="410" type="line"/>
      <point x="459" y="301"/>
      <point x="340" y="219"/>
      <point x="221" y="219" type="qcurve"/>
      <point x="168" y="219" type="line"/>
      <point x="168" y="217" type="line"/>
      <point x="452" y="2" type="line"/>
      <point x="452" y="0" type="line"/>
      <point x="357" y="0" type="line"/>
      <point x="68" y="223" type="line"/>
      <point x="81" y="268" type="line"/>
      <point x="238" y="268" type="line"/>
      <point x="314" y="268"/>
      <point x="406" y="335"/>
    </contour>
  </outline>
</glyph>
<glyph name="uni20BD" format="2">
  <advance width="614"/>
  <unicode hex="20BD"/>
  <outline>
    <contour>
      <point x="104" y="135" type="line"/>
      <point x="-5" y="135" type="line"/>
      <point x="9" y="183" type="line"/>
      <point x="118" y="183" type="line"/>
      <point x="147" y="285" type="line"/>
      <point x="38" y="285" type="line"/>
      <point x="52" y="333" type="line"/>
      <point x="161" y="333" type="line"/>
      <point x="253" y="655" type="line"/>
      <point x="458" y="655" type="line"/>
      <point x="545" y="655"/>
      <point x="648" y="570"/>
      <point x="648" y="499" type="qcurve"/>
      <point x="648" y="455"/>
      <point x="621" y="386"/>
      <point x="593" y="358" type="qcurve"/>
      <point x="556" y="321"/>
      <point x="432" y="285"/>
      <point x="343" y="285" type="qcurve"/>
      <point x="208" y="285" type="line"/>
      <point x="179" y="183" type="line"/>
      <point x="421" y="183" type="line"/>
      <point x="407" y="135" type="line"/>
      <point x="165" y="135" type="line"/>
      <point x="126" y="0" type="line"/>
      <point x="65" y="0" type="line"/>
    </contour>
    <contour>
      <point x="582" y="498" type="qcurve"/>
      <point x="582" y="550"/>
      <point x="512" y="604"/>
      <point x="445" y="604" type="qcurve"/>
      <point x="299" y="604" type="line"/>
      <point x="222" y="333" type="line"/>
      <point x="355" y="333" type="line"/>
      <point x="461" y="333"/>
      <point x="582" y="422"/>
    </contour>
  </outline>
</glyph>
<glyph name="servicemark" format="2">
  <advance width="614"/>
  <unicode hex="2120"/>
  <outline>
    <contour>
      <point x="206" y="434" type="qcurve"/>
      <point x="239" y="434"/>
      <point x="277" y="466"/>
      <point x="277" y="493" type="qcurve"/>
      <point x="277" y="508"/>
      <point x="261" y="529"/>
      <point x="243" y="538" type="qcurve"/>
      <point x="197" y="562" type="line"/>
      <point x="174" y="574"/>
      <point x="152" y="608"/>
      <point x="152" y="630" type="qcurve"/>
      <point x="152" y="667"/>
      <point x="211" y="716"/>
      <point x="259" y="716" type="qcurve"/>
      <point x="286" y="716"/>
      <point x="330" y="708"/>
      <point x="362" y="696" type="qcurve"/>
      <point x="347" y="660" type="line"/>
      <point x="324" y="669"/>
      <point x="281" y="678"/>
      <point x="259" y="678" type="qcurve"/>
      <point x="230" y="678"/>
      <point x="196" y="653"/>
      <point x="196" y="632" type="qcurve"/>
      <point x="196" y="621"/>
      <point x="207" y="606"/>
      <point x="221" y="598" type="qcurve"/>
      <point x="267" y="574" type="line"/>
      <point x="296" y="559"/>
      <point x="320" y="523"/>
      <point x="320" y="494" type="qcurve"/>
      <point x="320" y="448"/>
      <point x="259" y="396"/>
      <point x="206" y="396" type="qcurve"/>
      <point x="176" y="396"/>
      <point x="122" y="412"/>
      <point x="88" y="431" type="qcurve"/>
      <point x="108" y="465" type="line"/>
      <point x="136" y="449"/>
      <point x="184" y="434"/>
    </contour>
    <contour>
      <point x="616" y="710" type="line"/>
      <point x="684" y="710" type="line"/>
      <point x="608" y="403" type="line"/>
      <point x="566" y="403" type="line"/>
      <point x="638" y="683" type="line"/>
      <point x="511" y="490" type="line"/>
      <point x="501" y="490" type="line"/>
      <point x="483" y="674" type="line"/>
      <point x="396" y="403" type="line"/>
      <point x="354" y="403" type="line"/>
      <point x="454" y="710" type="line"/>
      <point x="517" y="710" type="line"/>
      <point x="530" y="580" type="line"/>
    </contour>
  </outline>
</glyph>
<glyph name="greaterequal" format="2">
  <advance width="614"/>
  <unicode hex="2265"/>
  <outline>
    <contour>
      <point x="583" y="467" type="line"/>
      <point x="568" y="412" type="line"/>
      <point x="87" y="209" type="line"/>
      <point x="103" y="268" type="line"/>
      <point x="530" y="444" type="line"/>
      <point x="204" y="619" type="line"/>
      <point x="219" y="670" type="line"/>
    </contour>
    <contour>
      <point x="465" y="51" type="line"/>
      <point x="450" y="0" type="line"/>
      <point x="27" y="0" type="line"/>
      <point x="42" y="51" type="line"/>
    </contour>
  </outline>
</glyph>
<glyph name="acutecmb.cap" format="2">
  <outline>
    <contour>
      <point x="90" y="731" type="line"/>
      <point x="68" y="769" type="line"/>
      <point x="327" y="920" type="line"/>
      <point x="354" y="869" type="line"/>
    </contour>
  </outline>
</glyph>
<glyph name="brevecmb.cap" format="2">
  <outline>
    <contour>
      <point x="158" y="781" type="qcurve"/>
      <point x="207" y="781"/>
      <point x="289" y="841"/>
      <point x="332" y="909" type="qcurve"/>
      <point x="374" y="893" type="line"/>
      <point x="326" y="806"/>
      <point x="223" y="731"/>
      <point x="154" y="731" type="qcurve"/>
      <point x="81" y="731"/>
      <point x="18" y="809"/>
      <point x="18" y="900" type="qcurve"/>
      <point x="58" y="909" type="line"/>
      <point x="62" y="841"/>
      <point x="109" y="781"/>
    </contour>
  </outline>
</glyph>
<glyph name="brevehook.cap" format="2">
  <outline>
    <contour>
      <point x="311" y="984" type="qcurve"/>
      <point x="311" y="945"/>
      <point x="223" y="905"/>
      <point x="116" y="892" type="qcurve"/>
      <point x="111" y="924" type="line"/>
      <point x="112" y="926" type="line"/>
      <point x="188" y="938"/>
      <point x="252" y="959"/>
      <point x="252" y="977" type="qcurve"/>
      <point x="252" y="991"/>
      <point x="186" y="1012"/>
      <point x="98" y="1027" type="qcurve"/>
      <point x="98" y="1030" type="line"/>
      <point x="142" y="1066" type="line"/>
      <point x="233" y="1051"/>
      <point x="311" y="1013"/>
    </contour>
    <contour>
      <point x="158" y="781" type="qcurve"/>
      <point x="209" y="781"/>
      <point x="290" y="835"/>
      <point x="327" y="894" type="qcurve"/>
      <point x="370" y="877" type="line"/>
      <point x="327" y="800"/>
      <point x="225" y="731"/>
      <point x="154" y="731" type="qcurve"/>
      <point x="78" y="731"/>
      <point x="13" y="802"/>
      <point x="13" y="885" type="qcurve"/>
      <point x="53" y="894" type="line"/>
      <point x="57" y="835"/>
      <point x="107" y="781"/>
    </contour>
  </outline>
</glyph>
<glyph name="brevehook" format="2">
  <outline>
    <contour>
      <point x="281" y="834" type="qcurve"/>
      <point x="281" y="795"/>
      <point x="176" y="742"/>
      <point x="73" y="728" type="qcurve"/>
      <point x="67" y="760" type="line"/>
      <point x="68" y="762" type="line"/>
      <point x="149" y="778"/>
      <point x="220" y="808"/>
      <point x="220" y="828" type="qcurve"/>
      <point x="220" y="844"/>
      <point x="159" y="867"/>
      <point x="87" y="880" type="qcurve"/>
      <point x="87" y="883" type="line"/>
      <point x="131" y="919" type="line"/>
      <point x="212" y="906"/>
      <point x="281" y="867"/>
    </contour>
    <contour>
      <point x="102" y="586" type="qcurve"/>
      <point x="150" y="586"/>
      <point x="233" y="649"/>
      <point x="277" y="720" type="qcurve"/>
      <point x="319" y="703" type="line"/>
      <point x="270" y="614"/>
      <point x="166" y="536"/>
      <point x="96" y="536" type="qcurve"/>
      <point x="24" y="536"/>
      <point x="-36" y="616"/>
      <point x="-36" y="714" type="qcurve"/>
      <point x="3" y="720" type="line"/>
      <point x="8" y="648"/>
      <point x="54" y="586"/>
    </contour>
  </outline>
</glyph>
<glyph name="circumflexacute.cap" format="2">
  <outline>
    <contour>
      <point x="318" y="893" type="line"/>
      <point x="297" y="928" type="line"/>
      <point x="471" y="1033" type="line"/>
      <point x="498" y="985" type="line"/>
    </contour>
    <contour>
      <point x="-9" y="732" type="line"/>
      <point x="-31" y="762" type="line"/>
      <point x="165" y="901" type="line"/>
      <point x="201" y="901" type="line"/>
      <point x="332" y="758" type="line"/>
      <point x="297" y="732" type="line"/>
      <point x="176" y="844" type="line"/>
    </contour>
  </outline>
</glyph>
<glyph name="circumflexacute" format="2">
  <outline>
    <contour>
      <point x="263" y="702" type="line"/>
      <point x="241" y="735" type="line"/>
      <point x="412" y="861" type="line"/>
      <point x="443" y="816" type="line"/>
    </contour>
    <contour>
      <point x="-65" y="536" type="line"/>
      <point x="-87" y="567" type="line"/>
      <point x="118" y="731" type="line"/>
      <point x="154" y="731" type="line"/>
      <point x="277" y="558" type="line"/>
      <point x="241" y="536" type="line"/>
      <point x="127" y="672" type="line"/>
    </contour>
  </outline>
</glyph>
<glyph name="circumflexgrave" format="2">
  <outline>
    <contour>
      <point x="254" y="853" type="line"/>
      <point x="353" y="727" type="line"/>
      <point x="321" y="702" type="line"/>
      <point x="207" y="816" type="line"/>
    </contour>
    <contour>
      <point x="-65" y="536" type="line"/>
      <point x="-87" y="567" type="line"/>
      <point x="118" y="731" type="line"/>
      <point x="154" y="731" type="line"/>
      <point x="277" y="558" type="line"/>
      <point x="241" y="536" type="line"/>
      <point x="127" y="672" type="line"/>
    </contour>
  </outline>
</glyph>
<glyph name="circumflextilde.cap" format="2">
  <outline>
    <contour>
      <point x="180" y="1073" type="qcurve"/>
      <point x="202" y="1073"/>
      <point x="234" y="1050"/>
      <point x="257" y="1020" type="qcurve"/>
      <point x="279" y="993"/>
      <point x="295" y="980"/>
      <point x="304" y="980" type="qcurve"/>
      <point x="321" y="980"/>
      <point x="364" y="1027"/>
      <point x="403" y="1084" type="qcurve"/>
      <point x="438" y="1062" type="line"/>
      <point x="386" y="984"/>
      <point x="332" y="928"/>
      <point x="305" y="928" type="qcurve"/>
      <point x="283" y="928"/>
      <point x="249" y="952"/>
      <point x="225" y="981" type="qcurve"/>
      <point x="204" y="1007"/>
      <point x="188" y="1021"/>
      <point x="179" y="1021" type="qcurve"/>
      <point x="163" y="1021"/>
      <point x="123" y="979"/>
      <point x="90" y="930" type="qcurve"/>
      <point x="54" y="948" type="line"/>
      <point x="100" y="1019"/>
      <point x="153" y="1073"/>
    </contour>
    <contour>
      <point x="-9" y="732" type="line"/>
      <point x="-31" y="762" type="line"/>
      <point x="165" y="901" type="line"/>
      <point x="201" y="901" type="line"/>
      <point x="332" y="758" type="line"/>
      <point x="297" y="732" type="line"/>
      <point x="176" y="844" type="line"/>
    </contour>
  </outline>
</glyph>
<glyph name="dieresisacute" format="2">
  <outline>
    <contour>
      <point x="341" y="823" type="line"/>
      <point x="79" y="693" type="line"/>
      <point x="58" y="729" type="line"/>
      <point x="318" y="875" type="line"/>
    </contour>
    <contour>
      <point x="41" y="617" type="qcurve"/>
      <point x="41" y="590"/>
      <point x="7" y="556"/>
      <point x="-21" y="556" type="qcurve"/>
      <point x="-41" y="556"/>
      <point x="-63" y="573"/>
      <point x="-63" y="588" type="qcurve"/>
      <point x="-63" y="613"/>
      <point x="-26" y="649"/>
      <point x="-1" y="649" type="qcurve"/>
      <point x="19" y="649"/>
      <point x="41" y="633"/>
    </contour>
    <contour>
      <point x="277" y="617" type="qcurve"/>
      <point x="277" y="590"/>
      <point x="243" y="556"/>
      <point x="215" y="556" type="qcurve"/>
      <point x="195" y="556"/>
      <point x="174" y="573"/>
      <point x="174" y="588" type="qcurve"/>
      <point x="174" y="613"/>
      <point x="210" y="649"/>
      <point x="236" y="649" type="qcurve"/>
      <point x="255" y="649"/>
      <point x="277" y="632"/>
    </contour>
  </outline>
</glyph>
<glyph name="dieresiscmb.cap" format="2">
  <outline>
    <contour>
      <point x="89" y="818" type="qcurve"/>
      <point x="89" y="789"/>
      <point x="51" y="751"/>
      <point x="21" y="751" type="qcurve"/>
      <point x="-1" y="751"/>
      <point x="-27" y="771"/>
      <point x="-27" y="788" type="qcurve"/>
      <point x="-27" y="816"/>
      <point x="12" y="856"/>
      <point x="41" y="856" type="qcurve"/>
      <point x="65" y="856"/>
      <point x="89" y="837"/>
    </contour>
    <contour>
      <point x="356" y="818" type="qcurve"/>
      <point x="356" y="789"/>
      <point x="318" y="751"/>
      <point x="288" y="751" type="qcurve"/>
      <point x="266" y="751"/>
      <point x="240" y="771"/>
      <point x="240" y="788" type="qcurve"/>
      <point x="240" y="816"/>
      <point x="279" y="856"/>
      <point x="308" y="856" type="qcurve"/>
      <point x="332" y="856"/>
      <point x="356" y="837"/>
    </contour>
  </outline>
</glyph>
<glyph name="dieresisgrave" format="2">
  <outline>
    <contour>
      <point x="37" y="870" type="line"/>
      <point x="213" y="724" type="line"/>
      <point x="187" y="693" type="line"/>
      <point x="-3" y="826" type="line"/>
    </contour>
    <contour>
      <point x="41" y="617" type="qcurve"/>
      <point x="41" y="590"/>
      <point x="7" y="556"/>
      <point x="-21" y="556" type="qcurve"/>
      <point x="-41" y="556"/>
      <point x="-63" y="573"/>
      <point x="-63" y="588" type="qcurve"/>
      <point x="-63" y="613"/>
      <point x="-26" y="649"/>
      <point x="-1" y="649" type="qcurve"/>
      <point x="19" y="649"/>
      <point x="41" y="633"/>
    </contour>
    <contour>
      <point x="277" y="617" type="qcurve"/>
      <point x="277" y="590"/>
      <point x="243" y="556"/>
      <point x="215" y="556" type="qcurve"/>
      <point x="195" y="556"/>
      <point x="174" y="573"/>
      <point x="174" y="588" type="qcurve"/>
      <point x="174" y="613"/>
      <point x="210" y="649"/>
      <point x="236" y="649" type="qcurve"/>
      <point x="255" y="649"/>
      <point x="277" y="632"/>
    </contour>
  </outline>
</glyph>
<glyph name="dieresismacron" format="2">
  <outline>
    <contour>
      <point x="286" y="726" type="line"/>
      <point x="-2" y="726" type="line"/>
      <point x="13" y="776" type="line"/>
      <point x="301" y="776" type="line"/>
    </contour>
    <contour>
      <point x="41" y="617" type="qcurve"/>
      <point x="41" y="590"/>
      <point x="7" y="556"/>
      <point x="-21" y="556" type="qcurve"/>
      <point x="-41" y="556"/>
      <point x="-63" y="573"/>
      <point x="-63" y="588" type="qcurve"/>
      <point x="-63" y="613"/>
      <point x="-26" y="649"/>
      <point x="-1" y="649" type="qcurve"/>
      <point x="19" y="649"/>
      <point x="41" y="633"/>
    </contour>
    <contour>
      <point x="277" y="617" type="qcurve"/>
      <point x="277" y="590"/>
      <point x="243" y="556"/>
      <point x="215" y="556" type="qcurve"/>
      <point x="195" y="556"/>
      <point x="174" y="573"/>
      <point x="174" y="588" type="qcurve"/>
      <point x="174" y="613"/>
      <point x="210" y="649"/>
      <point x="236" y="649" type="qcurve"/>
      <point x="255" y="649"/>
      <point x="277" y="632"/>
    </contour>
  </outline>
</glyph>
<glyph name="dotaccentcmb.cap" format="2">
  <outline>
    <contour>
      <point x="225" y="822" type="qcurve"/>
      <point x="225" y="790"/>
      <point x="187" y="751"/>
      <point x="155" y="751" type="qcurve"/>
      <point x="131" y="751"/>
      <point x="105" y="771"/>
      <point x="105" y="790" type="qcurve"/>
      <point x="105" y="818"/>
      <point x="147" y="860"/>
      <point x="176" y="860" type="qcurve"/>
      <point x="199" y="860"/>
      <point x="225" y="840"/>
    </contour>
  </outline>
</glyph>
<glyph name="four.den" format="2">
  <advance width="614"/>
  <outline>
    <contour>
      <point x="309" y="102" type="line"/>
      <point x="114" y="102" type="line"/>
      <point x="125" y="138" type="line"/>
      <point x="384" y="380" type="line"/>
      <point x="452" y="380" type="line"/>
      <point x="373" y="143" type="line"/>
      <point x="454" y="143" type="line"/>
      <point x="442" y="102" type="line"/>
      <point x="359" y="102" type="line"/>
      <point x="325" y="0" type="line"/>
      <point x="275" y="0" type="line"/>
    </contour>
    <contour>
      <point x="324" y="139" type="line"/>
      <point x="394" y="344" type="line"/>
      <point x="177" y="142" type="line"/>
      <point x="177" y="139" type="line"/>
    </contour>
  </outline>
</glyph>
<glyph name="fracbar" format="2">
  <advance width="614"/>
  <outline>
    <contour>
      <point x="614" y="417" type="line"/>
      <point x="317" y="192" type="line"/>
      <point x="39" y="-62" type="line"/>
      <point x="0" y="-11" type="line"/>
      <point x="299" y="214" type="line"/>
      <point x="575" y="468" type="line"/>
    </contour>
  </outline>
</glyph>
<glyph name="gravecmb.cap" format="2">
  <outline>
    <contour>
      <point x="52" y="913" type="line"/>
      <point x="225" y="762" type="line"/>
      <point x="198" y="731" type="line"/>
      <point x="12" y="869" type="line"/>
    </contour>
  </outline>
</glyph>
<glyph name="hookcmb.cap" format="2">
  <outline>
    <contour>
      <point x="319" y="839" type="qcurve"/>
      <point x="319" y="793"/>
      <point x="199" y="742"/>
      <point x="77" y="731" type="qcurve"/>
      <point x="72" y="765" type="line"/>
      <point x="72" y="767" type="line"/>
      <point x="172" y="782"/>
      <point x="259" y="812"/>
      <point x="259" y="835" type="qcurve"/>
      <point x="259" y="851"/>
      <point x="190" y="875"/>
      <point x="107" y="889" type="qcurve"/>
      <point x="107" y="892" type="line"/>
      <point x="151" y="926" type="line"/>
      <point x="240" y="911"/>
      <point x="319" y="871"/>
    </contour>
  </outline>
</glyph>
<glyph name="hungarumlautcmb.cap" format="2">
  <outline>
    <contour>
      <point x="22" y="731" type="line"/>
      <point x="-2" y="758" type="line"/>
      <point x="151" y="922" type="line"/>
      <point x="197" y="879" type="line"/>
    </contour>
    <contour>
      <point x="267" y="731" type="line"/>
      <point x="243" y="758" type="line"/>
      <point x="396" y="922" type="line"/>
      <point x="442" y="879" type="line"/>
    </contour>
  </outline>
</glyph>
<glyph name="middotcat" format="2">
  <advance width="614"/>
  <outline>
    <contour>
      <point x="394" y="376" type="qcurve"/>
      <point x="394" y="338"/>
      <point x="345" y="288"/>
      <point x="307" y="288" type="qcurve"/>
      <point x="277" y="288"/>
      <point x="244" y="314"/>
      <point x="244" y="337" type="qcurve"/>
      <point x="244" y="374"/>
      <point x="295" y="425"/>
      <point x="332" y="425" type="qcurve"/>
      <point x="362" y="425"/>
      <point x="394" y="399"/>
    </contour>
  </outline>
</glyph>
<glyph name="one.den" format="2">
  <advance width="614"/>
  <outline>
    <contour>
      <point x="381" y="0" type="line"/>
      <point x="121" y="0" type="line"/>
      <point x="133" y="42" type="line"/>
      <point x="231" y="42" type="line"/>
      <point x="328" y="310" type="line"/>
      <point x="211" y="258" type="line"/>
      <point x="225" y="310" type="line"/>
      <point x="384" y="380" type="line"/>
      <point x="403" y="380" type="line"/>
      <point x="281" y="42" type="line"/>
      <point x="393" y="42" type="line"/>
    </contour>
  </outline>
</glyph>
<glyph name="seven.den" format="2">
  <advance width="614"/>
  <outline>
    <contour>
      <point x="485" y="342" type="line"/>
      <point x="213" y="0" type="line"/>
      <point x="152" y="0" type="line"/>
      <point x="152" y="2" type="line"/>
      <point x="423" y="333" type="line"/>
      <point x="423" y="336" type="line"/>
      <point x="186" y="336" type="line"/>
      <point x="199" y="380" type="line"/>
      <point x="492" y="380" type="line"/>
    </contour>
  </outline>
</glyph>
<glyph name="tildecmb.cap" format="2">
  <outline>
    <contour>
      <point x="339" y="897" type="qcurve"/>
      <point x="374" y="876" type="line"/>
      <point x="317" y="792"/>
      <point x="256" y="731"/>
      <point x="226" y="731" type="qcurve"/>
      <point x="208" y="731"/>
      <point x="174" y="760"/>
      <point x="144" y="801" type="qcurve"/>
      <point x="122" y="830"/>
      <point x="102" y="849"/>
      <point x="92" y="849" type="qcurve"/>
      <point x="78" y="849"/>
      <point x="41" y="806"/>
      <point x="-13" y="731" type="qcurve"/>
      <point x="-48" y="754" type="line"/>
      <point x="7" y="835"/>
      <point x="69" y="897"/>
      <point x="100" y="897" type="qcurve"/>
      <point x="118" y="897"/>
      <point x="150" y="869"/>
      <point x="182" y="827" type="qcurve"/>
      <point x="205" y="797"/>
      <point x="224" y="779"/>
      <point x="233" y="779" type="qcurve"/>
      <point x="247" y="779"/>
      <point x="287" y="825"/>
    </contour>
  </outline>
</glyph>
<glyph name="two.den" format="2">
  <advance width="614"/>
  <outline>
    <contour>
      <point x="392" y="0" type="line"/>
      <point x="102" y="0" type="line"/>
      <point x="102" y="27" type="line"/>
      <point x="315" y="184" type="line"/>
      <point x="366" y="222"/>
      <point x="411" y="276"/>
      <point x="411" y="304" type="qcurve"/>
      <point x="411" y="325"/>
      <point x="380" y="349"/>
      <point x="352" y="349" type="qcurve"/>
      <point x="320" y="349"/>
      <point x="256" y="319"/>
      <point x="205" y="282" type="qcurve"/>
      <point x="181" y="317" type="line"/>
      <point x="237" y="358"/>
      <point x="313" y="392"/>
      <point x="355" y="392" type="qcurve"/>
      <point x="403" y="392"/>
      <point x="465" y="345"/>
      <point x="465" y="308" type="qcurve"/>
      <point x="465" y="270"/>
      <point x="414" y="205"/>
      <point x="358" y="165" type="qcurve"/>
      <point x="188" y="44" type="line"/>
      <point x="188" y="42" type="line"/>
      <point x="405" y="42" type="line"/>
    </contour>
  </outline>
</glyph>
